<?xml version="1.0" encoding="UTF-8"?>
<svg version="1.1" xmlns="http://www.w3.org/2000/svg" width="220" height="254">
<path d="M0 0 C72.6 0 145.2 0 220 0 C220 83.82 220 167.64 220 254 C147.4 254 74.8 254 0 254 C0 170.18 0 86.36 0 0 Z " fill="#EDF5FB" transform="translate(0,0)"/>
<path d="M0 0 C3.63 0 7.26 0 11 0 C11.029729 1.23919189 11.029729 1.23919189 11.06005859 2.50341797 C11.13891072 5.61611674 11.2256221 8.72847735 11.31738281 11.84082031 C11.37375999 13.8312213 11.42135393 15.8218649 11.46875 17.8125 C11.77803675 28.01896267 12.4639142 36.84400977 17.25 46 C17.74487915 46.96232544 17.74487915 46.96232544 18.24975586 47.9440918 C20.65179535 52.57155802 23.1671414 57.13674091 25.67578125 61.70703125 C26.32206313 62.88990675 26.96822143 64.07284978 27.61425781 65.25585938 C28.90145442 67.61262547 30.20367717 69.95885678 31.51464844 72.30273438 C32.10922852 73.38490234 32.70380859 74.46707031 33.31640625 75.58203125 C33.85724854 76.55374268 34.39809082 77.5254541 34.95532227 78.52661133 C36 81 36 81 35 84 C26.585 84.495 26.585 84.495 18 85 C14.34348565 79.23821981 10.90539364 73.38450004 7.55078125 67.44140625 C6.23133724 64.90099939 6.23133724 64.90099939 4 64 C3.58004761 65.07894531 3.58004761 65.07894531 3.15161133 66.1796875 C1.22561618 70.89647697 -1.06124219 75.43171058 -3.3125 80 C-3.78623047 80.98484375 -4.25996094 81.9696875 -4.74804688 82.984375 C-9.08382192 91.76268836 -13.80452282 96.1819333 -22.25 100.875 C-28.56949145 104.47744155 -34.46780335 108.2401043 -40 113 C-40.33 112.34 -40.66 111.68 -41 111 C-39.92700195 108.55175781 -39.92700195 108.55175781 -38.23828125 105.453125 C-37.61977295 104.30900146 -37.00126465 103.16487793 -36.36401367 101.98608398 C-35.68032151 100.74064265 -34.99648012 99.49528322 -34.3125 98.25 C-33.61948383 96.97442777 -32.92718804 95.69846391 -32.2355957 94.42211914 C-30.49174899 91.20838374 -28.73880523 87.99972717 -26.98205566 84.79302979 C-25.54514565 82.16953038 -24.11253794 79.543687 -22.6796875 76.91796875 C-22.17711426 75.99773926 -21.67454102 75.07750977 -21.15673828 74.12939453 C-19.23378444 70.60621588 -17.31484141 67.08085916 -15.39648438 63.55517578 C-14.4575643 61.83721467 -13.51346047 60.12207748 -12.56445312 58.40966797 C-11.17652135 55.90463197 -9.80574835 53.39082779 -8.4375 50.875 C-8.03168701 50.15368896 -7.62587402 49.43237793 -7.20776367 48.68920898 C-1.30467976 37.72454728 -0.51773636 26.51102694 -0.3125 14.25 C-0.27922686 12.85934498 -0.24472851 11.46871871 -0.20898438 10.078125 C-0.12733488 6.71883159 -0.05791607 3.35977204 0 0 Z " fill="#65B9D9" transform="translate(102,23)"/>
<path d="M0 0 C1.41202333 0.00561863 2.82405264 0.00987794 4.23608398 0.01286316 C7.892264 0.02413415 11.54806708 0.05343996 15.20410156 0.0869751 C18.95893255 0.11806697 22.71382647 0.13145065 26.46875 0.14648438 C33.79183562 0.17833367 41.11461434 0.22930446 48.4375 0.29296875 C48.4375 3.92296875 48.4375 7.55296875 48.4375 11.29296875 C46.85106689 11.30231445 45.26463379 11.31166016 43.63012695 11.32128906 C37.6415788 11.36170987 31.6535168 11.42760307 25.6652832 11.50048828 C23.09275646 11.52839996 20.5201487 11.54975958 17.94750977 11.56396484 C-14.82481217 11.7555785 -47.42337161 16.97640823 -73.5625 38.29296875 C-74.42488281 38.99164063 -75.28726563 39.6903125 -76.17578125 40.41015625 C-80.90335071 44.44186192 -83.91596608 47.88616435 -86.875 53.35546875 C-88.73828125 56.16015625 -88.73828125 56.16015625 -91.5625 58.29296875 C-98.43890786 59.67469652 -105.6296746 58.96500917 -112.5625 58.29296875 C-110.55283932 52.729995 -107.30607012 48.80685042 -103.5625 44.29296875 C-102.58796875 43.09607422 -102.58796875 43.09607422 -101.59375 41.875 C-77.05244806 13.07559903 -37.03628555 -0.43531962 0 0 Z " fill="#326A93" transform="translate(152.5625,113.70703125)"/>
<path d="M0 0 C2.05078125 0.03255208 4.1015625 0.06510417 6.15234375 0.09765625 C10.40025311 9.09983992 14.15423359 18.29071673 17.88330078 27.51586914 C18.91066446 30.05572678 19.94340552 32.59335362 20.9765625 35.13085938 C21.634436 36.75377599 22.29199949 38.37681833 22.94921875 40 C23.25647888 40.75417709 23.56373901 41.50835419 23.88031006 42.28538513 C25.19688559 45.55234526 26.29598608 48.67222557 27.15234375 52.09765625 C23.85234375 52.09765625 20.55234375 52.09765625 17.15234375 52.09765625 C15.83234375 48.79765625 14.51234375 45.49765625 13.15234375 42.09765625 C5.56234375 41.76765625 -2.02765625 41.43765625 -9.84765625 41.09765625 C-10.83765625 44.39765625 -11.82765625 47.69765625 -12.84765625 51.09765625 C-13.84765625 52.09765625 -13.84765625 52.09765625 -15.9140625 52.1953125 C-19.38085938 52.14648438 -19.38085938 52.14648438 -22.84765625 52.09765625 C-20.53350391 43.25630649 -16.99303672 34.97666773 -13.41015625 26.59765625 C-12.54518172 24.56233651 -11.68170171 22.52638922 -10.81869507 20.49023438 C-10.26263447 19.17866081 -9.70570564 17.86745497 -9.14785767 16.55664062 C-7.21838319 12.01259745 -5.37058525 7.44199403 -3.58959961 2.83789062 C-2.43453427 0.12867517 -2.43453427 0.12867517 0 0 Z " fill="#153356" transform="translate(49.84765625,186.90234375)"/>
<path d="M0 0 C3.5625 1.5 3.5625 1.5 6 3 C6.33 2.34 6.66 1.68 7 1 C9.64 1 12.28 1 15 1 C15 12.88 15 24.76 15 37 C12.36 37 9.72 37 7 37 C6.67 36.34 6.34 35.68 6 35 C5.01 35.495 4.02 35.99 3 36.5 C-1.8389704 38.52516266 -6.24281318 39.1299946 -11.14453125 37.12109375 C-16.22550485 34.2648136 -18.53448261 31.22689687 -21 26 C-21.33 25.34 -21.66 24.68 -22 24 C-22.63413034 18.01234619 -21.97549942 13.33537827 -19 8 C-13.39712094 1.51245583 -8.53979489 -1.16860351 0 0 Z " fill="#163358" transform="translate(171,202)"/>
<path d="M0 0 C6.9333769 -1.54824906 14.25075022 -2.71634056 21 0 C26.88570709 5.64110627 30.10814631 13.45117763 33.44824219 20.76757812 C35.58738792 25.2235708 38.11374734 29.4097659 40.68408203 33.62792969 C42 36 42 36 42 38 C38.60533263 38.23315639 35.21272038 38.37464625 31.8125 38.5 C30.85279297 38.56703125 29.89308594 38.6340625 28.90429688 38.703125 C22.00561712 38.89409191 22.00561712 38.89409191 19.44140625 36.61425781 C18.07470044 34.47877999 17.04752038 32.30931135 16 30 C14.93347788 28.03155607 13.85729645 26.06832643 12.7734375 24.109375 C11.05683447 20.90663879 9.34823544 17.69972604 7.640625 14.4921875 C7.08632812 13.45835937 6.53203125 12.42453125 5.9609375 11.359375 C5.46384277 10.42577148 4.96674805 9.49216797 4.45458984 8.53027344 C3.06409435 5.98525697 3.06409435 5.98525697 1.31494141 3.79003906 C0 2 0 2 0 0 Z " fill="#2F6086" transform="translate(133,134)"/>
<path d="M0 0 C2.97 0 5.94 0 9 0 C9.01401855 1.05912598 9.01401855 1.05912598 9.02832031 2.13964844 C9.08205659 5.34380545 9.16569757 8.54650757 9.25 11.75 C9.26417969 12.86117187 9.27835938 13.97234375 9.29296875 15.1171875 C9.32519531 16.18710938 9.35742188 17.25703125 9.390625 18.359375 C9.41157227 19.34389648 9.43251953 20.32841797 9.45410156 21.34277344 C10.14701317 24.71560434 11.26954783 25.94941945 14 28 C17.62649951 28.08916154 17.62649951 28.08916154 21 27 C23.22535794 23.66196309 23.28978404 22.37180289 23.4140625 18.45703125 C23.45273438 17.38388672 23.49140625 16.31074219 23.53125 15.20507812 C23.57765625 13.52575195 23.57765625 13.52575195 23.625 11.8125 C23.66367188 10.68134766 23.70234375 9.55019531 23.7421875 8.38476562 C23.83652533 5.5900075 23.92211652 2.79525722 24 0 C26.97 0 29.94 0 33 0 C33.11656783 4.20809884 33.18737611 8.41577996 33.25 12.625 C33.30027344 14.40970703 33.30027344 14.40970703 33.3515625 16.23046875 C33.47287875 27.08827277 33.47287875 27.08827277 29 32 C28.54625 32.5775 28.0925 33.155 27.625 33.75 C23.71710642 36.75607198 18.94121996 37.52921598 14.0859375 37.37109375 C9.44560847 36.54556705 5.65893046 34.28266505 2.88574219 30.46679688 C-0.72011326 24.35182716 -0.46548499 18.4286713 -0.25 11.5 C-0.23195313 10.39140625 -0.21390625 9.2828125 -0.1953125 8.140625 C-0.1485115 5.42616704 -0.08296375 2.71355284 0 0 Z " fill="#1A395D" transform="translate(81,203)"/>
<path d="M0 0 C1.63818359 2.35742188 1.63818359 2.35742188 3.3984375 5.46875 C4.04296875 6.59796875 4.6875 7.7271875 5.3515625 8.890625 C6.02622236 10.09364868 6.7007004 11.29677435 7.375 12.5 C8.04084006 13.67234486 8.70749851 14.84422532 9.375 16.015625 C11.26138682 19.33746953 13.13107826 22.6683094 15 26 C15.78745605 27.37671875 15.78745605 27.37671875 16.59082031 28.78125 C17.04811523 29.585625 17.50541016 30.39 17.9765625 31.21875 C18.37182129 31.90904297 18.76708008 32.59933594 19.17431641 33.31054688 C20 35 20 35 20 37 C18.03125 38.5078125 18.03125 38.5078125 15.5 40.125 C14.6646875 40.66382813 13.829375 41.20265625 12.96875 41.7578125 C12.3190625 42.16773438 11.669375 42.57765625 11 43 C10.64808594 42.37657715 10.29617187 41.7531543 9.93359375 41.11083984 C8.88330184 39.250548 7.832652 37.39045822 6.78173828 35.53051758 C5.59108903 33.42183828 4.40196802 31.31229536 3.21435547 29.2019043 C0.62497889 24.60726632 -1.96655759 20.01902609 -4.6796875 15.49609375 C-5.05738281 14.86074707 -5.43507813 14.22540039 -5.82421875 13.57080078 C-6.80876481 11.92333313 -7.80627185 10.28363063 -8.8046875 8.64453125 C-10 6 -10 6 -9.875 3.75 C-7.87210278 -0.25579444 -3.97627094 -1.32542365 0 0 Z " fill="#75CAE6" transform="translate(66,34)"/>
<path d="M0 0 C3.90705373 0.34649332 6.77067048 1.78769655 10.1328125 3.73046875 C11.10476562 4.28669922 12.07671875 4.84292969 13.078125 5.41601562 C14.08359375 6.00060547 15.0890625 6.58519531 16.125 7.1875 C18.10629307 8.32765356 20.08806276 9.46697926 22.0703125 10.60546875 C23.04258789 11.16540527 24.01486328 11.7253418 25.01660156 12.30224609 C29.64179756 14.93429298 34.3166659 17.47320729 39 20 C38.37432896 24.38577176 37.49790735 27.30744131 35 31 C27.35669283 27.31713194 20.00774923 23.22241311 12.6875 18.9375 C11.62982422 18.32583984 10.57214844 17.71417969 9.48242188 17.08398438 C8.46083984 16.48779297 7.43925781 15.89160156 6.38671875 15.27734375 C5.01326294 14.47671509 5.01326294 14.47671509 3.61206055 13.65991211 C0.90849445 11.94185006 -1.53652299 10.04423275 -4 8 C-2.25 2.25 -2.25 2.25 0 0 Z " fill="#5FADD0" transform="translate(28,68)"/>
<path d="M0 0 C1.86523438 0.84741211 1.86523438 0.84741211 3.61523438 4.40991211 C4.02773437 5.54428711 4.44023437 6.67866211 4.86523438 7.84741211 C-2.06689066 12.67006166 -9.28536899 16.95026072 -16.61181641 21.13598633 C-18.53112501 22.23463867 -20.44425941 23.34356817 -22.35742188 24.45288086 C-23.58232135 25.15533353 -24.80756904 25.85717945 -26.03320312 26.55834961 C-27.13325684 27.19047363 -28.23331055 27.82259766 -29.36669922 28.47387695 C-32.13476562 29.84741211 -32.13476562 29.84741211 -35.13476562 29.84741211 C-38.17791152 23.51766865 -38.17791152 23.51766865 -38.01147461 20.93212891 C-36.69402245 17.79937369 -34.64424395 17.11830774 -31.66601562 15.57006836 C-30.53679687 14.97387695 -29.40757812 14.37768555 -28.24414062 13.76342773 C-27.04123627 13.14515971 -25.83810977 12.52732372 -24.63476562 11.90991211 C-22.31164434 10.69285468 -19.98872394 9.47541373 -17.66601562 8.25756836 C-16.5496875 7.68151855 -15.43335938 7.10546875 -14.28320312 6.51196289 C-10.78421343 4.66207829 -7.38668466 2.67447274 -4.01953125 0.59521484 C-2.13476562 -0.15258789 -2.13476562 -0.15258789 0 0 Z " fill="#6DBEDE" transform="translate(187.134765625,68.152587890625)"/>
<path d="M0 0 C14.85 0 29.7 0 45 0 C43.68 3.63 42.36 7.26 41 11 C27.47 11 13.94 11 0 11 C0 7.37 0 3.74 0 0 Z " fill="#356187" transform="translate(14,114)"/>
<path d="M0 0 C3.48539917 0.64544429 6.02819057 2.10134397 9 4 C8.39932522 8.27469544 6.88323291 11.37210728 4.76171875 15.11328125 C4.43967972 15.68652634 4.11764069 16.25977142 3.7858429 16.85038757 C2.75946418 18.67479391 1.7239603 20.49380551 0.6875 22.3125 C-0.6656331 24.70281106 -2.01502494 27.09521665 -3.36328125 29.48828125 C-3.99572754 30.61057129 -4.62817383 31.73286133 -5.27978516 32.88916016 C-7.30100441 36.54433696 -9.18297819 40.23983919 -11 44 C-14.40212299 42.38617243 -17.10324519 40.41396234 -20 38 C-18.70175096 33.74821471 -17.07329485 30.05600176 -14.8828125 26.19140625 C-14.27566406 25.11439453 -13.66851562 24.03738281 -13.04296875 22.92773438 C-12.41003906 21.81720703 -11.77710938 20.70667969 -11.125 19.5625 C-10.49980469 18.45583984 -9.87460938 17.34917969 -9.23046875 16.20898438 C-6.17005481 10.79664555 -3.08984582 5.39558504 0 0 Z " fill="#8CD7ED" transform="translate(150,33)"/>
<path d="M0 0 C2.9375 1.5 2.9375 1.5 5 3 C4.01 5.31 3.02 7.62 2 10 C1.31292969 9.89300781 0.62585938 9.78601563 -0.08203125 9.67578125 C-0.98308594 9.55589844 -1.88414062 9.43601563 -2.8125 9.3125 C-3.70582031 9.18488281 -4.59914062 9.05726563 -5.51953125 8.92578125 C-7.99284576 8.77154513 -7.99284576 8.77154513 -9.62304688 10.14453125 C-11.53010315 12.71432339 -11.43099863 14.58134599 -11.51171875 17.76171875 C-11.54716797 18.87998047 -11.58261719 19.99824219 -11.61914062 21.15039062 C-11.65297852 22.90125977 -11.65297852 22.90125977 -11.6875 24.6875 C-11.72166016 25.86634766 -11.75582031 27.04519531 -11.79101562 28.25976562 C-11.87357925 31.17308225 -11.94270322 34.08609466 -12 37 C-14.97 37 -17.94 37 -21 37 C-21 25.12 -21 13.24 -21 1 C-18.36 1 -15.72 1 -13 1 C-13 1.99 -13 2.98 -13 4 C-12.34 4 -11.68 4 -11 4 C-11 3.34 -11 2.68 -11 2 C-7.34387956 -0.33991708 -4.26792624 -0.37437949 0 0 Z " fill="#173457" transform="translate(143,202)"/>
<path d="M0 0 C3.70183428 0.05224196 7.40385618 0.0742118 11.10595703 0.09918213 C18.29921272 0.15193501 25.49134967 0.2394462 32.68408203 0.34332275 C32.68408203 3.97332275 32.68408203 7.60332275 32.68408203 11.34332275 C30.30443237 11.35734131 30.30443237 11.35734131 27.87670898 11.37164307 C21.88816083 11.41206387 15.90009883 11.47795708 9.91186523 11.55084229 C7.33933849 11.57875397 4.76673074 11.60011359 2.1940918 11.61431885 C-13.0519055 11.70345935 -27.52842221 12.41971102 -42.40689087 15.89788818 C-44.69988638 16.43291436 -47.00410007 16.89732036 -49.31591797 17.34332275 C-49.31591797 16.35332275 -49.31591797 15.36332275 -49.31591797 14.34332275 C-47.635625 14.03588135 -47.635625 14.03588135 -45.92138672 13.722229 C-44.44870973 13.45020586 -42.97605461 13.17806427 -41.50341797 12.90582275 C-40.76542969 12.77111572 -40.02744141 12.63640869 -39.26708984 12.49761963 C-36.20276721 11.92912538 -33.27662844 11.33022624 -30.31591797 10.34332275 C-28.05777625 10.12425871 -25.79487982 9.95295008 -23.53076172 9.8081665 C-22.87386856 9.76518936 -22.2169754 9.72221222 -21.54017639 9.67793274 C-19.44481139 9.54182965 -17.34913757 9.41133953 -15.25341797 9.28082275 C-13.83868168 9.18937715 -12.42396779 9.09758424 -11.00927734 9.00543213 C-0.74333976 8.34332275 -0.74333976 8.34332275 1.68408203 8.34332275 C1.68408203 9.00332275 1.68408203 9.66332275 1.68408203 10.34332275 C6.14268065 10.20496472 10.60087989 10.05637696 15.05908203 9.90582275 C16.33009766 9.86650635 17.60111328 9.82718994 18.91064453 9.78668213 C20.72822266 9.72384033 20.72822266 9.72384033 22.58251953 9.659729 C24.2635376 9.60474243 24.2635376 9.60474243 25.97851562 9.54864502 C28.65120974 9.51736262 28.65120974 9.51736262 30.68408203 8.34332275 C30.68408203 6.36332275 30.68408203 4.38332275 30.68408203 2.34332275 C24.63753552 2.31839091 18.5910197 2.30035413 12.54443359 2.28839111 C10.49234495 2.2833978 8.4402598 2.27660084 6.38818359 2.2678833 C-8.39535848 2.15275424 -8.39535848 2.15275424 -23.13671875 3.13287354 C-25.31591797 3.34332275 -25.31591797 3.34332275 -28.94091797 3.28082275 C-34.5486881 3.38467035 -40.00222028 4.57209019 -45.31591797 6.34332275 C-46.91700107 6.67125544 -48.52161575 6.98216981 -50.12841797 7.28082275 C-53.99147633 8.03554472 -57.59472957 9.04899635 -61.31591797 10.34332275 C-65.70192154 11.61639735 -69.70704302 12.63137744 -74.31591797 12.34332275 C-69.83534565 7.86275044 -61.33161766 6.95259766 -55.31591797 5.34332275 C-54.48786652 5.11865829 -53.65981506 4.89399384 -52.80667114 4.66252136 C-35.15481611 0.02208085 -18.08661594 -0.28343325 0 0 Z " fill="#6593AE" transform="translate(168.31591796875,113.65667724609375)"/>
<path d="M0 0 C3.95403662 0.26360244 5.65370756 0.86143155 8.75 3.25 C11.44657104 7.29485657 11.2922677 10.50307196 10.75 15.25 C9.48854888 18.21441013 8.52685568 19.68744933 5.9375 21.5625 C2.92760008 22.50846855 0.89801964 22.69072275 -2.25 22.25 C-5.17483867 20.42452064 -7.68429205 18.38141589 -9.25 15.25 C-9.67068924 12.19098826 -9.74028455 9.30241674 -9.25 6.25 C-6.8125 3.25 -6.8125 3.25 -4.25 1.25 C-3.25 0.25 -3.25 0.25 0 0 Z " fill="#DFEDF8" transform="translate(167.25,209.75)"/>
<path d="M0 0 C3.63 0 7.26 0 11 0 C11.01981934 0.82612793 11.03963867 1.65225586 11.06005859 2.50341797 C11.13891072 5.61611674 11.2256221 8.72847735 11.31738281 11.84082031 C11.37375999 13.8312213 11.42135393 15.8218649 11.46875 17.8125 C11.75688167 27.32084521 12.69804691 36.0375559 16 45 C12.30668518 42.71354874 11.28214046 40.92456419 10.26171875 36.734375 C8.66457253 29.55857112 8.66352174 22.56903463 8.8125 15.25 C8.82603516 13.96867187 8.83957031 12.68734375 8.85351562 11.3671875 C8.88847295 8.24433305 8.9375391 5.12240459 9 2 C5.75016865 3.08784968 5.75016865 3.08784968 3 5 C2.92530057 6.43049412 2.91675049 7.86458212 2.9375 9.296875 C2.94523437 10.1734375 2.95296875 11.05 2.9609375 11.953125 C2.98676098 13.80208639 3.01279893 15.65104481 3.0390625 17.5 C3.04679687 18.38171875 3.05453125 19.2634375 3.0625 20.171875 C3.07410156 20.9772168 3.08570312 21.78255859 3.09765625 22.61230469 C2.99308036 25.16918509 2.54812642 27.50349142 2 30 C1.55825114 33.01995586 1.11938697 36.04000561 0.6953125 39.0625 C-0.04885601 42.20640293 -1.24063391 44.3124644 -3 47 C-3.4640625 48.175625 -3.4640625 48.175625 -3.9375 49.375 C-5.35182575 52.86921655 -6.92969944 55.83365796 -9 59 C-11.1328125 59.703125 -11.1328125 59.703125 -13 60 C-12.45730469 58.9378125 -11.91460937 57.875625 -11.35546875 56.78125 C-10.63259435 55.35427716 -9.90995043 53.92718754 -9.1875 52.5 C-8.83107422 51.80390625 -8.47464844 51.1078125 -8.10742188 50.390625 C-3.46784699 41.19660504 -0.99476914 33.2537114 -0.68359375 22.8515625 C-0.66281265 22.19417084 -0.64203156 21.53677917 -0.62062073 20.85946655 C-0.55579247 18.78140638 -0.49655436 16.70323144 -0.4375 14.625 C-0.39425112 13.20701989 -0.35063491 11.78905093 -0.30664062 10.37109375 C-0.20018082 6.9141812 -0.09873016 3.45714294 0 0 Z " fill="#A6DBE9" transform="translate(102,23)"/>
<path d="M0 0 C-1.07636719 0.59425781 -2.15273437 1.18851563 -3.26171875 1.80078125 C-18.66739887 10.47267686 -31.09455101 20.14182652 -41 35 C-43.15478516 35.34057617 -43.15478516 35.34057617 -45.7890625 35.29296875 C-46.73007812 35.28330078 -47.67109375 35.27363281 -48.640625 35.26367188 C-49.62546875 35.23853516 -50.6103125 35.21339844 -51.625 35.1875 C-53.11386719 35.16719727 -53.11386719 35.16719727 -54.6328125 35.14648438 C-57.08908072 35.11105743 -59.54427285 35.06166196 -62 35 C-59.9904613 29.43736389 -56.74411618 25.51306135 -53 21 C-52.33871094 20.19046875 -51.67742188 19.3809375 -50.99609375 18.546875 C-45.07839167 11.61564383 -38.33209366 6.32625042 -31 1 C-30.34 1.33 -29.68 1.66 -29 2 C-30.85281327 3.70982111 -32.707106 5.41798266 -34.5625 7.125 C-35.11462158 7.63417969 -35.66674316 8.14335937 -36.2355957 8.66796875 C-38.99207495 11.199834 -41.7651293 13.65933342 -44.6875 16 C-49.77300481 20.26931268 -55.02336183 26.04672366 -58 32 C-55.56242587 32.02698422 -53.12515085 32.04683099 -50.6875 32.0625 C-49.99720703 32.07087891 -49.30691406 32.07925781 -48.59570312 32.08789062 C-45.4516975 32.10307906 -43.00579981 32.00193327 -40 31 C-39.29325371 29.68747118 -38.63815344 28.34721283 -38 27 C-37.19063509 25.73434883 -36.35513157 24.48519004 -35.5 23.25 C-35.0771875 22.63640625 -34.654375 22.0228125 -34.21875 21.390625 C-33.8165625 20.93171875 -33.414375 20.4728125 -33 20 C-32.34 20 -31.68 20 -31 20 C-30.64035156 19.12794922 -30.64035156 19.12794922 -30.2734375 18.23828125 C-25.69742363 10.19516484 -14.85511025 5.26157007 -7 1 C-6.28585938 0.58492187 -5.57171875 0.16984375 -4.8359375 -0.2578125 C-3 -1 -3 -1 0 0 Z " fill="#2F465E" transform="translate(102,137)"/>
<path d="M0 0 C0.66 0 1.32 0 2 0 C4.31 6.6 6.62 13.2 9 20 C3.72 20 -1.56 20 -7 20 C-5.04068712 13.14240492 -2.75665244 6.57678502 0 0 Z " fill="#D7E8F4" transform="translate(51,200)"/>
<path d="M0 0 C0.66 0.33 1.32 0.66 2 1 C1.50628906 1.60328125 1.01257813 2.2065625 0.50390625 2.828125 C-0.45708984 4.02695313 -0.45708984 4.02695313 -1.4375 5.25 C-2.07558594 6.03890625 -2.71367188 6.8278125 -3.37109375 7.640625 C-4.94164602 9.91547769 -5.43621371 11.35454126 -6 14 C-7.28796166 16.02951535 -8.61558 18.03501678 -10 20 C3.49928776 13.36885472 3.49928776 13.36885472 14 3 C14.11571007 5.89275167 14.12672089 7.39743343 13 10 C10.83515154 11.78447378 8.57089687 13.00431851 6.09765625 14.328125 C2.52423716 16.25677994 -0.84942942 18.41044346 -4.25 20.625 C-4.8277417 20.99737793 -5.4054834 21.36975586 -6.00073242 21.75341797 C-9.69111499 24.13393436 -13.35126218 26.55645134 -17 29 C-15.66188443 25.51270698 -14.14103268 22.22079449 -12.3984375 18.91796875 C-11.66367188 17.52094727 -11.66367188 17.52094727 -10.9140625 16.09570312 C-10.40617187 15.13599609 -9.89828125 14.17628906 -9.375 13.1875 C-8.859375 12.20845703 -8.34375 11.22941406 -7.8125 10.22070312 C-6.5438591 7.81263475 -5.27296034 5.405787 -4 3 C-3.01 3 -2.02 3 -1 3 C-0.67 2.01 -0.34 1.02 0 0 Z " fill="#406782" transform="translate(78,107)"/>
<path d="M0 0 C0.66 0 1.32 0 2 0 C2.50789063 1.03898437 3.01578125 2.07796875 3.5390625 3.1484375 C6.99657593 10.17227609 10.47758867 17.0928052 14.625 23.7421875 C16.51295356 26.84229306 18.17190623 30.05434587 19.82421875 33.28515625 C20.96928702 35.32509901 20.96928702 35.32509901 24 36 C24 35.34 24 34.68 24 34 C24.99 33.505 24.99 33.505 26 33 C25.46274105 29.62294375 24.88935377 26.303314 24 23 C27.09592835 26.5087188 28.74194623 29.49197399 30 34 C27.03 35.98 24.06 37.96 21 40 C20.154375 38.50210938 19.30875 37.00421875 18.4375 35.4609375 C17.8911792 34.49381836 17.3448584 33.52669922 16.78198242 32.53027344 C15.5912916 30.42197255 14.40135344 28.31324641 13.2121582 26.20410156 C10.61817889 21.60818141 8.02206728 17.01519883 5.35546875 12.4609375 C4.98228516 11.8210791 4.60910156 11.1812207 4.22460938 10.52197266 C3.25230498 8.86072376 2.27288706 7.20364409 1.29296875 5.546875 C0 3 0 3 0 0 Z " fill="#7FBCCF" transform="translate(56,37)"/>
<path d="M0 0 C2.6460081 3.32384351 4.70236112 6.84375088 6.75 10.5625 C7.38421875 11.69816406 8.0184375 12.83382812 8.671875 14.00390625 C10 17 10 17 9 20 C0.585 20.495 0.585 20.495 -8 21 C-12.20246858 14.57269512 -15.65038916 7.9064141 -19 1 C-18.34 1 -17.68 1 -17 1 C-15.30859375 3.23046875 -15.30859375 3.23046875 -13.4375 6.1875 C-12.81746094 7.15042969 -12.19742188 8.11335938 -11.55859375 9.10546875 C-10.08833292 11.83595315 -9.40710846 13.949475 -9 17 C-5.73086376 18.03115279 -3.13958652 17.9638984 0.25 17.5625 C1.14203125 17.46066406 2.0340625 17.35882813 2.953125 17.25390625 C3.96632812 17.12822266 3.96632812 17.12822266 5 17 C5.33 15.35 5.66 13.7 6 12 C5.34 12 4.68 12 4 12 C3.32332002 10.75539217 2.65905281 9.50403104 2 8.25 C1.62875 7.55390625 1.2575 6.8578125 0.875 6.140625 C0 4 0 4 0 0 Z " fill="#79B0C6" transform="translate(128,87)"/>
<path d="M0 0 C1 3 1 3 0.13891602 5.12207031 C-0.31813721 5.93256836 -0.77519043 6.74306641 -1.24609375 7.578125 C-2.0026123 8.9391333 -2.0026123 8.9391333 -2.77441406 10.32763672 C-3.32323242 11.2920166 -3.87205078 12.25639648 -4.4375 13.25 C-5.54616145 15.23665085 -6.65423177 17.22363169 -7.76171875 19.2109375 C-8.31134277 20.19030273 -8.8609668 21.16966797 -9.42724609 22.17871094 C-11.58577953 26.05080228 -13.67599151 29.95715864 -15.75 33.875 C-16.08443115 34.50438477 -16.4188623 35.13376953 -16.76342773 35.78222656 C-17.51004262 37.18757208 -18.25522045 38.59368097 -19 40 C-22.40212299 38.38617243 -25.10324519 36.41396234 -28 34 C-27.34 32.35 -26.68 30.7 -26 29 C-25.34 29.33 -24.68 29.66 -24 30 C-24.495 32.475 -24.495 32.475 -25 35 C-23.35 35 -21.7 35 -20 35 C-18.68 32.36 -17.36 29.72 -16 27 C-15.34 27 -14.68 27 -14 27 C-13.71125 26.278125 -13.4225 25.55625 -13.125 24.8125 C-12.08333333 22.20833333 -11.04166667 19.60416667 -10 17 C-9.34 17 -8.68 17 -8 17 C-7.79375 16.236875 -7.5875 15.47375 -7.375 14.6875 C-5.44105609 9.50101406 -2.7214854 4.80966916 0 0 Z " fill="#91C9D9" transform="translate(158,37)"/>
<path d="M0 0 C0.33 0 0.66 0 1 0 C1.1970602 1.56132309 1.38220155 3.12415264 1.5625 4.6875 C1.66691406 5.55761719 1.77132812 6.42773438 1.87890625 7.32421875 C2.00493278 10.10899844 1.62013583 12.29054747 1 15 C0.55825114 18.01995586 0.11938697 21.04000561 -0.3046875 24.0625 C-1.04885601 27.20640293 -2.24063391 29.3124644 -4 32 C-4.4640625 33.175625 -4.4640625 33.175625 -4.9375 34.375 C-6.35182575 37.86921655 -7.92969944 40.83365796 -10 44 C-12.1328125 44.703125 -12.1328125 44.703125 -14 45 C-13.45730469 43.9378125 -12.91460937 42.875625 -12.35546875 41.78125 C-11.63259435 40.35427716 -10.90995043 38.92718754 -10.1875 37.5 C-9.83107422 36.80390625 -9.47464844 36.1078125 -9.10742188 35.390625 C-4.8492363 26.95238569 -2.49953457 19.40546519 -1.3125 10 C-1.18294922 9.03449219 -1.05339844 8.06898437 -0.91992188 7.07421875 C-0.60486435 4.71712169 -0.29842471 2.35925041 0 0 Z " fill="#86CDE0" transform="translate(103,38)"/>
<path d="M0 0 C0 0.66 0 1.32 0 2 C-0.97102661 2.05945801 -0.97102661 2.05945801 -1.96166992 2.12011719 C-16.91710878 3.07485996 -31.35118411 4.85115532 -46 8 C-47.66609499 8.33617907 -49.33242705 8.67123054 -51 9 C-51 8.01 -51 7.02 -51 6 C-49.87980469 5.79503906 -48.75960937 5.59007813 -47.60546875 5.37890625 C-46.13279176 5.10688311 -44.66013664 4.83474151 -43.1875 4.5625 C-42.44951172 4.42779297 -41.71152344 4.29308594 -40.95117188 4.15429688 C-37.88684924 3.58580263 -34.96071047 2.98690349 -32 2 C-30.16548758 1.78408108 -28.32572911 1.61137658 -26.484375 1.46484375 C-25.39769531 1.37783203 -24.31101563 1.29082031 -23.19140625 1.20117188 C-22.05574219 1.11416016 -20.92007813 1.02714844 -19.75 0.9375 C-18.62980469 0.84662109 -17.50960937 0.75574219 -16.35546875 0.66210938 C-10.88761526 0.23281509 -5.48476987 -0.11888952 0 0 Z " fill="#5288A7" transform="translate(170,122)"/>
<path d="M0 0 C0.66 0 1.32 0 2 0 C2 0.66 2 1.32 2 2 C1.34 2 0.68 2 0 2 C-0.33 4.31 -0.66 6.62 -1 9 C-0.43321533 9.11174561 0.13356934 9.22349121 0.7175293 9.33862305 C3.29770309 10.08626352 5.22821869 11.1817183 7.51953125 12.58203125 C8.37740234 13.10216797 9.23527344 13.62230469 10.11914062 14.15820312 C11.00794922 14.70412109 11.89675781 15.25003906 12.8125 15.8125 C23.27981193 22.9880715 23.27981193 22.9880715 35 27 C34.67 27.66 34.34 28.32 34 29 C29.58592455 28.40251749 26.40881819 26.74932136 22.5625 24.54296875 C21.95994385 24.19873367 21.3573877 23.8544986 20.73657227 23.49983215 C19.46731597 22.77268318 18.20001118 22.04211837 16.93457031 21.30834961 C15.01067636 20.19368566 13.08020512 19.09118446 11.1484375 17.99023438 C5.83133275 14.93557629 0.71550745 11.95428668 -4 8 C-2.25 2.25 -2.25 2.25 0 0 Z " fill="#6AA1BA" transform="translate(28,68)"/>
<path d="M0 0 C3.00316762 1.66842645 3.56554964 4.8521365 4.6875 7.9375 C-1.74397471 12.41571202 -8.3815479 16.28417572 -15.3125 19.9375 C-15.9725 19.2775 -16.6325 18.6175 -17.3125 17.9375 C-14.3425 16.9475 -11.3725 15.9575 -8.3125 14.9375 C-8.3125 14.2775 -8.3125 13.6175 -8.3125 12.9375 C-5.40701118 10.89580515 -3.91107954 9.9375 -0.3125 9.9375 C-0.3125 9.2775 -0.3125 8.6175 -0.3125 7.9375 C0.3475 7.9375 1.0075 7.9375 1.6875 7.9375 C1.3575 5.9575 1.0275 3.9775 0.6875 1.9375 C0.00042969 2.28683594 -0.68664062 2.63617188 -1.39453125 2.99609375 C-2.74611328 3.67865234 -2.74611328 3.67865234 -4.125 4.375 C-5.01832031 4.82746094 -5.91164062 5.27992187 -6.83203125 5.74609375 C-11.77056452 8.11814516 -11.77056452 8.11814516 -15.3125 6.9375 C-13.23676919 5.73465599 -11.15366905 4.55044299 -9.0625 3.375 C-8.47597656 3.03275391 -7.88945312 2.69050781 -7.28515625 2.33789062 C-4.78679885 0.94835477 -2.89766503 -0.07831527 0 0 Z " fill="#83BACF" transform="translate(187.3125,68.0625)"/>
<path d="M0 0 C12.64131511 6.09757552 24.82898447 13.02216547 37 20 C36.48964169 24.3890815 35.47785723 27.33708062 33 31 C32.01 30.34 31.02 29.68 30 29 C30.66 28.4225 31.32 27.845 32 27.25 C34.44290923 25.00346023 34.44290923 25.00346023 34 21 C30.08599656 18.89967287 26.17159775 16.800085 22.25683594 14.70117188 C20.92599863 13.98750632 19.59526828 13.27364126 18.26464844 12.55957031 C16.34859057 11.53137185 14.43214523 10.50389883 12.515625 9.4765625 C11.36352539 8.85861816 10.21142578 8.24067383 9.02441406 7.60400391 C6.6967781 6.36953763 4.3643455 5.16187794 2 4 C2 3.34 2 2.68 2 2 C1.34 2 0.68 2 0 2 C0 1.34 0 0.68 0 0 Z " fill="#79B2C9" transform="translate(30,68)"/>
<path d="M0 0 C2.92879371 0.62759865 5.36095629 1.58622659 8 3 C7.67 3.99 7.34 4.98 7 6 C6.34 5.67 5.68 5.34 5 5 C5 4.34 5 3.68 5 3 C0.13740992 5.29622309 -1.52473389 8.47375267 -4 13 C-4.83084074 14.43525419 -5.6669624 15.86746182 -6.5078125 17.296875 C-6.93707031 18.02777344 -7.36632812 18.75867188 -7.80859375 19.51171875 C-8.24300781 20.25035156 -8.67742187 20.98898438 -9.125 21.75 C-9.56714844 22.50410156 -10.00929687 23.25820313 -10.46484375 24.03515625 C-11.10486328 25.12376953 -11.10486328 25.12376953 -11.7578125 26.234375 C-12.1408252 26.88631836 -12.52383789 27.53826172 -12.91845703 28.20996094 C-13.9002668 29.83493367 -14.94687472 31.42031207 -16 33 C-16.66 32.67 -17.32 32.34 -18 32 C-16.07983099 28.56756358 -14.15924116 25.135363 -12.23828125 21.70336914 C-11.26801257 19.96968501 -10.29806573 18.23582076 -9.328125 16.50195312 C-6.24157706 10.98796384 -3.14884823 5.47867786 0 0 Z " fill="#A2D7E5" transform="translate(150,33)"/>
<path d="M0 0 C-2.21585882 2.21585882 -3.02193622 2.40438724 -6 3 C-7.20076172 3.2475 -7.20076172 3.2475 -8.42578125 3.5 C-10.15196615 3.83528326 -11.87853518 4.16859446 -13.60546875 4.5 C-18.21856254 5.39330712 -22.5532912 6.45331868 -27 8 C-31.38600357 9.2730746 -35.39112505 10.28805468 -40 10 C-37.20064188 7.20064188 -33.90282914 6.61107441 -30.1875 5.5625 C-29.42574463 5.34440674 -28.66398926 5.12631348 -27.87915039 4.90161133 C-8.72724657 -0.51336745 -8.72724657 -0.51336745 0 0 Z " fill="#578FAF" transform="translate(134,116)"/>
<path d="M0 0 C0.827845 -0.0033284 1.65569 -0.0066568 2.50862122 -0.01008606 C4.24915006 -0.01512655 5.98968848 -0.01749528 7.73022461 -0.01733398 C10.39648107 -0.01953286 13.06233155 -0.03775239 15.72851562 -0.05664062 C17.42317567 -0.05957265 19.11783768 -0.06155872 20.8125 -0.0625 C21.60939743 -0.06968552 22.40629486 -0.07687103 23.2273407 -0.08427429 C27.08406488 -0.06826542 28.92199354 -0.02205639 32.20703125 2.16796875 C31.57313477 2.16273193 30.93923828 2.15749512 30.28613281 2.15209961 C14.95123983 1.99434725 14.95123983 1.99434725 -0.34375 2.9375 C-10.6797612 3.91010711 -10.6797612 3.91010711 -14.79296875 1.16796875 C-9.81405439 0.17337641 -5.05248502 0.0071097 0 0 Z " fill="#5792B2" transform="translate(145.79296875,113.83203125)"/>
<path d="M0 0 C0.66 0.33 1.32 0.66 2 1 C2.40729228 3.32156597 2.74438677 5.6568787 3 8 C3.928125 7.505 4.85625 7.01 5.8125 6.5 C9 5 9 5 12 5 C12 4.34 12 3.68 12 3 C18.625 -0.125 18.625 -0.125 22 1 C19.23549979 2.67734723 16.46243144 4.33997634 13.6875 6 C12.90181641 6.47695312 12.11613281 6.95390625 11.30664062 7.4453125 C10.54931641 7.89648438 9.79199219 8.34765625 9.01171875 8.8125 C8.31522217 9.23144531 7.61872559 9.65039062 6.90112305 10.08203125 C5 11 5 11 2 11 C-1.07692308 4.6 -1.07692308 4.6 -0.6875 1.5625 C-0.460625 1.046875 -0.23375 0.53125 0 0 Z " fill="#71B0C9" transform="translate(150,87)"/>
<path d="M0 0 C0.33 0 0.66 0 1 0 C1.01981934 0.79583496 1.03963867 1.59166992 1.06005859 2.41162109 C1.15613858 6.06637638 1.26547824 9.7206238 1.375 13.375 C1.42140625 15.25251953 1.42140625 15.25251953 1.46875 17.16796875 C1.76324788 26.54281783 2.7441836 35.16278406 6 44 C2.3267669 41.71983308 1.27027842 39.93342474 0.23046875 35.765625 C-1.41409511 28.37677883 -1.11417966 21.2640932 -0.6875 13.75 C-0.62403354 12.40762758 -0.56217566 11.06517811 -0.50195312 9.72265625 C-0.35034901 6.48066052 -0.18275853 3.24036306 0 0 Z " fill="#9AD2E0" transform="translate(112,24)"/>
<path d="M0 0 C0.33 0.66 0.66 1.32 1 2 C0.0421975 4.35096976 -0.96157435 6.68351201 -2 9 C-2.19142578 9.94746094 -2.19142578 9.94746094 -2.38671875 10.9140625 C-3.21209192 13.72138271 -4.71156638 15.64612796 -6.4375 18 C-8.57171765 20.92285339 -10.48390444 23.70877748 -12 27 C-12.66 27 -13.32 27 -14 27 C-12.66645868 23.5302333 -11.15868093 20.24490813 -9.43359375 16.953125 C-8.94826172 16.02628906 -8.46292969 15.09945312 -7.96289062 14.14453125 C-7.45951172 13.18933594 -6.95613281 12.23414062 -6.4375 11.25 C-5.93025391 10.27933594 -5.42300781 9.30867188 -4.90039062 8.30859375 C-1.13078746 1.13078746 -1.13078746 1.13078746 0 0 Z " fill="#6FACC4" transform="translate(89,83)"/>
<path d="M0 0 C-1.14597656 0.65226563 -2.29195312 1.30453125 -3.47265625 1.9765625 C-5.00282546 2.85899137 -6.53276096 3.7418256 -8.0625 4.625 C-8.81466797 5.05167969 -9.56683594 5.47835937 -10.34179688 5.91796875 C-14.87219788 8.54599358 -18.73081793 11.31529164 -22.48999023 14.97412109 C-22.98829346 15.31266113 -23.48659668 15.65120117 -24 16 C-24.99 15.67 -25.98 15.34 -27 15 C-23.47746549 11.23475827 -20.01956167 8.55238687 -15.5625 5.875 C-13.92474609 4.88113281 -13.92474609 4.88113281 -12.25390625 3.8671875 C-3.48831054 -1.16277018 -3.48831054 -1.16277018 0 0 Z " fill="#365775" transform="translate(102,137)"/>
<path d="M0 0 C0.33 0.66 0.66 1.32 1 2 C0.01196289 4.43017578 0.01196289 4.43017578 -1.52734375 7.4453125 C-2.34428711 9.05986328 -2.34428711 9.05986328 -3.17773438 10.70703125 C-3.75845703 11.83496094 -4.33917969 12.96289062 -4.9375 14.125 C-5.51435547 15.26066406 -6.09121094 16.39632812 -6.68554688 17.56640625 C-8.1166459 20.38129523 -9.55505865 23.1921983 -11 26 C-11.33 26 -11.66 26 -12 26 C-11.49228528 20.03435204 -9.61407872 15.36190101 -7 10 C-6.34 10 -5.68 10 -5 10 C-4.7834375 8.824375 -4.7834375 8.824375 -4.5625 7.625 C-4 5 -4 5 -3 3 C-2.34 3 -1.68 3 -1 3 C-0.67 2.01 -0.34 1.02 0 0 Z " fill="#73A9C0" transform="translate(104,88)"/>
<path d="M0 0 C0.33 0 0.66 0 1 0 C0.55518531 6.72533254 -0.80425967 11.68739815 -3.8125 17.6875 C-4.15603516 18.40744141 -4.49957031 19.12738281 -4.85351562 19.86914062 C-6.93836893 24.16010512 -9.26264159 28.09388181 -12 32 C-12.75 30.4375 -12.75 30.4375 -13 28 C-11.86915563 25.49713591 -10.47860484 23.32992278 -9 21 C-8.34 21 -7.68 21 -7 21 C-6.72414063 20.17242187 -6.44828125 19.34484375 -6.1640625 18.4921875 C-4.109375 12.328125 -2.0546875 6.1640625 0 0 Z " fill="#E1FBFD" transform="translate(100,53)"/>
<path d="M0 0 C0.81276398 0.00141495 1.62552795 0.0028299 2.46292114 0.00428772 C5.04042351 0.0098529 7.6178367 0.02239885 10.1953125 0.03515625 C11.95051957 0.04017575 13.70572802 0.04473787 15.4609375 0.04882812 C19.74742982 0.05981091 24.03385607 0.07705133 28.3203125 0.09765625 C27.6603125 2.07765625 27.0003125 4.05765625 26.3203125 6.09765625 C25.6603125 4.77765625 25.0003125 3.45765625 24.3203125 2.09765625 C11.4503125 2.09765625 -1.4196875 2.09765625 -14.6796875 2.09765625 C-14.6796875 1.76765625 -14.6796875 1.43765625 -14.6796875 1.09765625 C-9.72626484 0.10214919 -5.02458059 -0.03331778 0 0 Z " fill="#375D7B" transform="translate(30.6796875,113.90234375)"/>
<path d="M0 0 C0.66 0.33 1.32 0.66 2 1 C-1.49123307 4.22179472 -4.9914745 7.43316458 -8.50390625 10.63183594 C-9.75992669 11.78045515 -11.00615139 12.93977334 -12.25 14.1015625 C-14.0625 15.75 -14.0625 15.75 -17 18 C-17.99 17.67 -18.98 17.34 -20 17 C-13.92810397 10.50448331 -7.09841692 5.30513265 0 0 Z " fill="#2F4D6A" transform="translate(71,138)"/>
<path d="M0 0 C0.66 0 1.32 0 2 0 C0.52739404 3.35511255 -1.3873911 5.69964703 -3.875 8.375 C-6.95839592 11.76673551 -9.60062072 15.10100867 -12 19 C-12.99 18.34 -13.98 17.68 -15 17 C-14.01 16.67 -13.02 16.34 -12 16 C-11.29325371 14.68747118 -10.63815344 13.34721283 -10 12 C-9.19063509 10.73434883 -8.35513157 9.48519004 -7.5 8.25 C-7.0771875 7.63640625 -6.654375 7.0228125 -6.21875 6.390625 C-5.8165625 5.93171875 -5.414375 5.4728125 -5 5 C-4.34 5 -3.68 5 -3 5 C-2.690625 4.360625 -2.38125 3.72125 -2.0625 3.0625 C-1 1 -1 1 0 0 Z " fill="#213D5A" transform="translate(74,152)"/>
<path d="M0 0 C0.33 0 0.66 0 1 0 C2.30792683 10.36280488 2.30792683 10.36280488 1 15 C0.86464844 15.69996094 0.72929688 16.39992188 0.58984375 17.12109375 C-0.2932949 21.64068568 -1.28661989 25.17660075 -4 29 C-5.40869015 26.1826197 -4.54345595 24.81848748 -3.6875 21.8125 C-1.77614479 14.59669568 -0.85971456 7.40365948 0 0 Z " fill="#90D1E1" transform="translate(103,38)"/>
<path d="M0 0 C6.93 0 13.86 0 21 0 C21.33 0.66 21.66 1.32 22 2 C19.85473901 2.19393875 17.70876323 2.37998676 15.5625 2.5625 C13.77005859 2.71912109 13.77005859 2.71912109 11.94140625 2.87890625 C10.97074219 2.91886719 10.00007812 2.95882812 9 3 C8.67 2.67 8.34 2.34 8 2 C5.32941149 1.85884839 2.67567762 1.95752893 0 2 C0 1.34 0 0.68 0 0 Z " fill="#6D96AC" transform="translate(133,134)"/>
<path d="M0 0 C2.31 0 4.62 0 7 0 C6.01 0.33 5.02 0.66 4 1 C4.30035156 1.75925781 4.60070312 2.51851562 4.91015625 3.30078125 C5.29042969 4.29464844 5.67070312 5.28851563 6.0625 6.3125 C6.44535156 7.29863281 6.82820312 8.28476563 7.22265625 9.30078125 C8 12 8 12 7 15 C5.82823482 12.87767021 4.66245215 10.75242209 3.5 8.625 C3.16613281 8.02171875 2.83226562 7.4184375 2.48828125 6.796875 C0 2.2265625 0 2.2265625 0 0 Z " fill="#4E7A96" transform="translate(134,135)"/>
<path d="M0 0 C0.52078125 0.23589844 1.0415625 0.47179687 1.578125 0.71484375 C-2.57321375 4.2019683 -7.32005205 6.0142361 -12.421875 7.71484375 C-13.411875 7.38484375 -14.401875 7.05484375 -15.421875 6.71484375 C-13.34614419 5.51199974 -11.26304405 4.32778674 -9.171875 3.15234375 C-8.29208984 2.63897461 -8.29208984 2.63897461 -7.39453125 2.11523438 C-2.96392641 -0.34897843 -2.96392641 -0.34897843 0 0 Z " fill="#8CC5DA" transform="translate(187.421875,68.28515625)"/>
<path d="M0 0 C3.09592835 3.5087188 4.74194623 6.49197399 6 11 C4.02 12.32 2.04 13.64 0 15 C-0.99 14.34 -1.98 13.68 -3 13 C-2.01 13 -1.02 13 0 13 C0 12.34 0 11.68 0 11 C0.66 10.67 1.32 10.34 2 10 C1.46274105 6.62294375 0.88935377 3.303314 0 0 Z " fill="#8CC5D8" transform="translate(80,60)"/>
<path d="M0 0 C0.66 0 1.32 0 2 0 C2.33773437 0.89203125 2.67546875 1.7840625 3.0234375 2.703125 C3.46945313 3.87359375 3.91546875 5.0440625 4.375 6.25 C5.03628906 7.99023438 5.03628906 7.99023438 5.7109375 9.765625 C6.87803282 12.88593733 6.87803282 12.88593733 8.2265625 15.234375 C9 17 9 17 8 20 C0 4.56916996 0 4.56916996 0 0 Z " fill="#D7F8FC" transform="translate(114,56)"/>
<path d="M0 0 C-2.55112297 2.55112297 -5.02813006 3.41125202 -8.375 4.75 C-9.51710938 5.21921875 -10.65921875 5.6884375 -11.8359375 6.171875 C-15 7 -15 7 -17.4140625 6.140625 C-17.93742187 5.76421875 -18.46078125 5.3878125 -19 5 C-18.39671875 4.80664062 -17.7934375 4.61328125 -17.171875 4.4140625 C-16.37265625 4.15367187 -15.5734375 3.89328125 -14.75 3.625 C-13.96109375 3.36976563 -13.1721875 3.11453125 -12.359375 2.8515625 C-10.00022442 2.05990956 -10.00022442 2.05990956 -7.90625 0.90625 C-5.24411813 -0.35935367 -2.90359516 -0.1319816 0 0 Z " fill="#406D8C" transform="translate(119,130)"/>
<path d="M0 0 C-0.99 0 -1.98 0 -3 0 C-3 0.66 -3 1.32 -3 2 C-4.55966218 2.508783 -6.12289241 3.00663469 -7.6875 3.5 C-8.99267578 3.91765625 -8.99267578 3.91765625 -10.32421875 4.34375 C-12.99391677 4.99850805 -15.26396684 5.11831495 -18 5 C-15.53031367 2.53031367 -13.42511413 1.93002031 -10.125 0.8125 C-9.07570313 0.44769531 -8.02640625 0.08289063 -6.9453125 -0.29296875 C-4.06405115 -0.98462433 -2.72213388 -1.03230681 0 0 Z " fill="#5A87A3" transform="translate(112,121)"/>
<path d="M0 0 C0.66 0.33 1.32 0.66 2 1 C1.43410156 1.77085938 0.86820313 2.54171875 0.28515625 3.3359375 C-0.44832031 4.33882813 -1.18179688 5.34171875 -1.9375 6.375 C-3.03384766 7.87160156 -3.03384766 7.87160156 -4.15234375 9.3984375 C-5.9779569 11.82817109 -5.9779569 11.82817109 -7 14 C-7.66 14 -8.32 14 -9 14 C-7.55049545 10.2089881 -5.84827434 6.6125362 -4 3 C-3.01 3 -2.02 3 -1 3 C-0.67 2.01 -0.34 1.02 0 0 Z " fill="#4A80A0" transform="translate(78,107)"/>
<path d="M0 0 C0.33 0 0.66 0 1 0 C1 3.1875 1 3.1875 0 7 C-2.45520293 9.09704436 -5.11265436 10.57276992 -8 12 C-8 9 -8 9 -6.50390625 7.5 C-5.86324219 7.005 -5.22257812 6.51 -4.5625 6 C-1.49568071 3.62300315 -1.49568071 3.62300315 0 0 Z " fill="#4B7E9C" transform="translate(91,110)"/>
<path d="M0 0 C0.66 0.66 1.32 1.32 2 2 C-9.52164009 3.33257403 -9.52164009 3.33257403 -15 2 C-15 1.67 -15 1.34 -15 1 C-10.0858728 -0.00802609 -5.00527017 -0.59062188 0 0 Z " fill="#6FA3BD" transform="translate(146,114)"/>
<path d="M0 0 C1.134375 0.020625 2.26875 0.04125 3.4375 0.0625 C3.4375 0.3925 3.4375 0.7225 3.4375 1.0625 C2.365 1.31 1.2925 1.5575 0.1875 1.8125 C-3.6956085 3.1068695 -5.2756506 3.72018165 -7.5625 7.0625 C-8.17355304 9.76563293 -8.37698249 12.2797373 -8.5625 15.0625 C-8.8925 15.0625 -9.2225 15.0625 -9.5625 15.0625 C-10.34984859 7.03154441 -10.34984859 7.03154441 -7.125 3.0625 C-6.279375 2.4025 -5.43375 1.7425 -4.5625 1.0625 C-3.5625 0.0625 -3.5625 0.0625 0 0 Z " fill="#C5D6E6" transform="translate(167.5625,209.9375)"/>
<path d="M0 0 C-3.63 2.31 -7.26 4.62 -11 7 C-11.66 6.34 -12.32 5.68 -13 5 C-11.59447701 3.96387729 -10.17508306 2.94655075 -8.75 1.9375 C-7.96109375 1.36902344 -7.1721875 0.80054688 -6.359375 0.21484375 C-4 -1 -4 -1 0 0 Z " fill="#396180" transform="translate(87,131)"/>
<path d="M0 0 C0.66 0 1.32 0 2 0 C1.36567062 3.16451962 0.26817072 5.51687779 -1.4375 8.25 C-1.86933594 8.95640625 -2.30117187 9.6628125 -2.74609375 10.390625 C-3.36677734 11.18726562 -3.36677734 11.18726562 -4 12 C-4.66 12 -5.32 12 -6 12 C-4.43358249 7.69235185 -2.31663844 3.93828536 0 0 Z " fill="#5F96B0" transform="translate(81,98)"/>
<path d="M0 0 C0.66 0.66 1.32 1.32 2 2 C1.0479279 3.00596297 0.08812654 4.00461563 -0.875 5 C-1.40867188 5.556875 -1.94234375 6.11375 -2.4921875 6.6875 C-4 8 -4 8 -6 8 C-4.73058503 4.08597051 -3.48832306 2.20927127 0 0 Z " fill="#213B5A" transform="translate(157,205)"/>
<path d="M0 0 C2.64 0 5.28 0 8 0 C8.33 0.99 8.66 1.98 9 3 C5.66666667 3 2.33333333 3 -1 3 C-0.67 2.01 -0.34 1.02 0 0 Z " fill="#2D455F" transform="translate(48,187)"/>
<path d="M0 0 C-2.85478326 1.90318884 -4.41941308 2.4619099 -7.6875 3.125 C-8.49574219 3.29257813 -9.30398437 3.46015625 -10.13671875 3.6328125 C-10.75160156 3.75398437 -11.36648437 3.87515625 -12 4 C-12 3.01 -12 2.02 -12 1 C-7.9472484 0.01751476 -4.16138263 -0.08159574 0 0 Z " fill="#4C7E9D" transform="translate(131,127)"/>
<path d="M0 0 C4.95 0 9.9 0 15 0 C14.34 1.98 13.68 3.96 13 6 C12.78601562 5.35546875 12.57203125 4.7109375 12.3515625 4.046875 C11.1526477 1.72160885 11.1526477 1.72160885 8.3984375 1.390625 C6.90183594 1.32101563 6.90183594 1.32101563 5.375 1.25 C3.87066406 1.16492188 3.87066406 1.16492188 2.3359375 1.078125 C1.56507812 1.05234375 0.79421875 1.0265625 0 1 C0 0.67 0 0.34 0 0 Z " fill="#3E6280" transform="translate(44,114)"/>
<path d="M0 0 C0.99 0.33 1.98 0.66 3 1 C1.75 3.9375 1.75 3.9375 0 7 C-1.32 7.33 -2.64 7.66 -4 8 C-2.68 5.36 -1.36 2.72 0 0 Z " fill="#80C3D8" transform="translate(93,75)"/>
<path d="M0 0 C0.66 0.33 1.32 0.66 2 1 C0.02 3.31 -1.96 5.62 -4 8 C-4.99 7.67 -5.98 7.34 -7 7 C-4.69 4.69 -2.38 2.38 0 0 Z " fill="#3A536C" transform="translate(58,148)"/>
<path d="M0 0 C0 3 0 3 0 3 Z M-4 3 C-3.01 3.33 -2.02 3.66 -1 4 C-2.98 6.97 -2.98 6.97 -5 10 C-5.66 9.67 -6.32 9.34 -7 9 C-6.01 7.02 -5.02 5.04 -4 3 Z " fill="#416E8E" transform="translate(72,118)"/>
<path d="M0 0 C0.33 0 0.66 0 1 0 C0.56179109 4.55737263 0.14958831 7.57653445 -3 11 C-2.53199289 6.94393835 -2.12046792 3.53411321 0 0 Z " fill="#6699B3" transform="translate(95,103)"/>
<path d="M0 0 C0.66 0 1.32 0 2 0 C5.22265625 5.17578125 5.22265625 5.17578125 6 7 C5.67 7.99 5.34 8.98 5 10 C2.35534962 6.8745041 1.15585285 3.91211733 0 0 Z " fill="#395F7C" transform="translate(142,149)"/>
<path d="M0 0 C0 0.66 0 1.32 0 2 C-3.37817425 2.84454356 -5.67465243 3.10844919 -9 2 C-3.375 -1.125 -3.375 -1.125 0 0 Z " fill="#93D0E2" transform="translate(66,34)"/>
<path d="M0 0 C0.66 0 1.32 0 2 0 C1.55090939 1.48199902 1.09043436 2.96055236 0.625 4.4375 C0.36976562 5.26121094 0.11453125 6.08492188 -0.1484375 6.93359375 C-1 9 -1 9 -3 10 C-3.66 9.34 -4.32 8.68 -5 8 C-4.0409375 7.13375 -4.0409375 7.13375 -3.0625 6.25 C-1.01776132 4.01937599 -0.41794801 2.92563609 0 0 Z " fill="#7FABBE" transform="translate(65,89)"/>
<path d="M0 0 C1.37562854 1.28965176 2.70766393 2.62689293 4 4 C4 4.66 4 5.32 4 6 C2.35 6 0.7 6 -1 6 C-0.67 4.02 -0.34 2.04 0 0 Z " fill="#31526D" transform="translate(170,164)"/>
<path d="M0 0 C0.99 0.33 1.98 0.66 3 1 C4.1875 3.5625 4.1875 3.5625 5 6 C4.01 6.495 4.01 6.495 3 7 C3 6.34 3 5.68 3 5 C2.34 5 1.68 5 1 5 C0.67 3.35 0.34 1.7 0 0 Z " fill="#4B7997" transform="translate(153,136)"/>
<path d="M0 0 C0.33 0.66 0.66 1.32 1 2 C0.06553465 4.03144641 -0.93224776 6.03533587 -2 8 C-2.99 8 -3.98 8 -5 8 C-4.34 6.35 -3.68 4.7 -3 3 C-2.34 3 -1.68 3 -1 3 C-0.67 2.01 -0.34 1.02 0 0 Z " fill="#71B1CA" transform="translate(104,88)"/>
<path d="M0 0 C0.33 0 0.66 0 1 0 C3.42857143 7.42857143 3.42857143 7.42857143 2 11 C-0.67927341 6.98108988 -0.15601248 4.75838077 0 0 Z " fill="#97D6E6" transform="translate(111,45)"/>
</svg>
