<?xml version="1.0" encoding="UTF-8"?>
<svg version="1.1" xmlns="http://www.w3.org/2000/svg" width="252" height="247">
<path d="M0 0 C83.16 0 166.32 0 252 0 C252 81.51 252 163.02 252 247 C168.84 247 85.68 247 0 247 C0 165.49 0 83.98 0 0 Z " fill="#DBE9F5" transform="translate(0,0)"/>
<path d="M0 0 C83.16 0 166.32 0 252 0 C252 81.51 252 163.02 252 247 C168.84 247 85.68 247 0 247 C0 165.49 0 83.98 0 0 Z M41.3125 46.75 C19.16440294 72.47430356 10.7687109 103.4412015 13 137 C13.67023903 142.88134746 15.14354769 148.393567 17 154 C17.24137695 154.7621582 17.48275391 155.52431641 17.73144531 156.30957031 C22.80221498 172.09592872 30.14587228 185.39872899 41 198 C41.58910156 198.73347656 42.17820312 199.46695313 42.78515625 200.22265625 C59.06787837 219.82414976 84.93031247 232.92170735 110.125 235.625 C125.61694647 236.69477635 140.89073181 236.8794067 156 233 C156.9590625 232.76796875 157.918125 232.5359375 158.90625 232.296875 C173.20129511 228.20110365 188.07197572 220.03759267 199 210 C199.79921875 209.34 200.5984375 208.68 201.421875 208 C218.13298389 193.88378379 228.86557643 174.77285145 235 154 C235.21027832 153.31808594 235.42055664 152.63617188 235.63720703 151.93359375 C243.72645382 124.93100907 239.61343045 95.1441802 227.15234375 70.17578125 C211.9749302 42.34532889 187.13490834 22.54782558 157 13 C114.9707461 0.93049939 70.77982763 15.51878304 41.3125 46.75 Z " fill="#DBE9F5" transform="translate(0,0)"/>
<path d="M0 0 C24.53802263 19.87890441 41.46812997 45.83366059 45.375 77.625 C46.43454983 92.97383781 45.91891802 107.8894743 41.375 122.625 C41.06151611 123.68654297 41.06151611 123.68654297 40.74169922 124.76953125 C36.16107739 140.00395891 28.92430089 153.66780369 18.375 165.625 C17.25351562 166.96111328 17.25351562 166.96111328 16.109375 168.32421875 C-1.43450637 188.61286865 -26.97198305 201.71428509 -53.625 204.625 C-86.12694963 206.06698791 -115.36243511 200.34353601 -140.625 178.625 C-141.25921875 178.11195313 -141.8934375 177.59890625 -142.546875 177.0703125 C-160.20337726 162.616981 -171.43930202 141.22808157 -177.625 119.625 C-177.9446875 118.60148438 -178.264375 117.57796875 -178.59375 116.5234375 C-186.08215032 88.58061039 -179.20014827 57.83078793 -165.08325195 33.21557617 C-161.73965506 27.59450735 -157.94317421 22.53965353 -153.625 17.625 C-152.96242188 16.81933594 -152.29984375 16.01367188 -151.6171875 15.18359375 C-138.63229892 -0.12515865 -120.6870392 -11.31081911 -101.625 -17.375 C-100.47128906 -17.766875 -99.31757812 -18.15875 -98.12890625 -18.5625 C-65.60773975 -28.49076616 -26.78263634 -20.19141561 0 0 Z M-127.625 18.625 C-129.02492188 19.76388672 -129.02492188 19.76388672 -130.453125 20.92578125 C-148.18791473 36.05979874 -159.69420924 59.36722983 -161.625 82.625 C-163.01438543 109.55770212 -155.46406842 134.04906896 -137.625 154.625 C-136.94566406 155.48609375 -136.26632813 156.3471875 -135.56640625 157.234375 C-127.393607 167.29826462 -115.26141983 174.25369451 -103.5625 179.5 C-102.96308594 179.77392578 -102.36367187 180.04785156 -101.74609375 180.33007812 C-82.16754486 188.68829338 -56.92250239 188.82069742 -37.05078125 181.46484375 C-26.35070941 177.12900486 -16.3572001 172.31528986 -7.625 164.625 C-6.84125 163.99464844 -6.0575 163.36429688 -5.25 162.71484375 C12.01728812 148.28047008 24.25328116 125.06217671 26.375 102.625 C27.88310604 71.99159614 19.54586385 47.45131369 -0.49609375 24.48046875 C-13.36764751 10.80637207 -30.86908768 3.48078353 -48.625 -1.375 C-49.22707275 -1.55385742 -49.82914551 -1.73271484 -50.44946289 -1.91699219 C-77.86287207 -7.68823623 -106.62103947 0.91403328 -127.625 18.625 Z " fill="#4F96DB" transform="translate(193.625,31.375)"/>
<path d="M0 0 C4.78946816 3.6999209 8.26701628 8.33942809 9.0546875 14.3984375 C9.32116704 25.41292528 7.28781108 35.3505403 4.79638672 46.06152344 C2.84427216 54.6658528 1.84004645 62.47095717 2.6484375 71.2734375 C7.47406798 71.66736652 11.26774752 71.86358595 15.4609375 69.2109375 C18.6484375 67.2734375 18.6484375 67.2734375 21.0234375 67.3984375 C22.6484375 68.2734375 22.6484375 68.2734375 23.6484375 70.2734375 C24.13746549 74.51168012 24.02350028 76.66083496 21.7734375 80.3359375 C15.09749692 87.36918194 5.47311118 91.66443687 -4.109375 92.51953125 C-11.13718364 92.68592783 -18.09139038 92.30198904 -24.1640625 88.5234375 C-30.42356716 82.08508985 -31.71045752 76.71893306 -31.63671875 68.04541016 C-31.03300856 60.05968894 -29.07937792 52.26582182 -27.3515625 44.4609375 C-26.77564297 41.83282148 -26.2034658 39.20405847 -25.63964844 36.57331848 C-25.29097929 34.94888847 -24.93529362 33.32594229 -24.57128906 31.70487976 C-23.59300472 27.17554751 -22.9018246 22.93244108 -23.3515625 18.2734375 C-28.03906887 15.14843325 -32.98151953 15.88649171 -38.4140625 16.7734375 C-39.373125 17.0209375 -39.373125 17.0209375 -40.3515625 17.2734375 C-40.95306626 10.17569314 -40.95306626 10.17569314 -38.6015625 6.6484375 C-28.61030938 -1.81677408 -11.99802914 -7.13806797 0 0 Z " fill="#4488D6" transform="translate(133.3515625,101.7265625)"/>
<path d="M0 0 C24.53802263 19.87890441 41.46812997 45.83366059 45.375 77.625 C46.43454983 92.97383781 45.91891802 107.8894743 41.375 122.625 C41.06151611 123.68654297 41.06151611 123.68654297 40.74169922 124.76953125 C36.16107739 140.00395891 28.92430089 153.66780369 18.375 165.625 C17.25351562 166.96111328 17.25351562 166.96111328 16.109375 168.32421875 C-1.43450637 188.61286865 -26.97198305 201.71428509 -53.625 204.625 C-86.12694963 206.06698791 -115.36243511 200.34353601 -140.625 178.625 C-141.25921875 178.11195313 -141.8934375 177.59890625 -142.546875 177.0703125 C-160.20337726 162.616981 -171.43930202 141.22808157 -177.625 119.625 C-177.9446875 118.60148438 -178.264375 117.57796875 -178.59375 116.5234375 C-186.08215032 88.58061039 -179.20014827 57.83078793 -165.08325195 33.21557617 C-161.73965506 27.59450735 -157.94317421 22.53965353 -153.625 17.625 C-152.96242188 16.81933594 -152.29984375 16.01367188 -151.6171875 15.18359375 C-138.63229892 -0.12515865 -120.6870392 -11.31081911 -101.625 -17.375 C-100.47128906 -17.766875 -99.31757812 -18.15875 -98.12890625 -18.5625 C-65.60773975 -28.49076616 -26.78263634 -20.19141561 0 0 Z M-139.625 7.625 C-140.15834961 8.1106543 -140.69169922 8.59630859 -141.24121094 9.09667969 C-158.06443667 24.60632394 -168.55086395 42.6076398 -174.625 64.625 C-175.10839844 66.28789062 -175.10839844 66.28789062 -175.6015625 67.984375 C-179.69703028 83.98349211 -178.37107525 100.71345263 -174.625 116.625 C-174.44710937 117.50414062 -174.26921875 118.38328125 -174.0859375 119.2890625 C-173.01934868 124.54969549 -171.41780621 129.56928649 -169.625 134.625 C-168.965 134.625 -168.305 134.625 -167.625 134.625 C-167.54894531 135.29660156 -167.47289062 135.96820313 -167.39453125 136.66015625 C-166.37197007 140.59987164 -164.45213092 143.6288203 -162.3125 147.0625 C-161.92126953 147.70509766 -161.53003906 148.34769531 -161.12695312 149.00976562 C-159.97494693 150.8915668 -158.80314523 152.75947832 -157.625 154.625 C-157.25713379 155.22199707 -156.88926758 155.81899414 -156.51025391 156.43408203 C-155.60302277 157.86706139 -154.62040688 159.25180543 -153.625 160.625 C-152.965 160.625 -152.305 160.625 -151.625 160.625 C-151.398125 161.181875 -151.17125 161.73875 -150.9375 162.3125 C-149.25122733 165.28355185 -147.094646 167.27022125 -144.625 169.625 C-143.3565625 170.9553125 -143.3565625 170.9553125 -142.0625 172.3125 C-139.92887276 174.33671046 -138.31676935 175.52835323 -135.625 176.625 C-135.625 177.285 -135.625 177.945 -135.625 178.625 C-111.81477625 196.73418426 -83.30599771 204.603903 -53.546875 200.82006836 C-33.50287778 197.80924171 -8.25340215 189.87424872 5.375 173.625 C5.375 172.965 5.375 172.305 5.375 171.625 C6.695 171.295 8.015 170.965 9.375 170.625 C9.375 169.965 9.375 169.305 9.375 168.625 C10.035 168.625 10.695 168.625 11.375 168.625 C11.643125 167.820625 11.91125 167.01625 12.1875 166.1875 C12.579375 165.341875 12.97125 164.49625 13.375 163.625 C14.365 163.295 15.355 162.965 16.375 162.625 C18.10497003 160.49039291 19.69054757 158.37838258 21.25 156.125 C21.69617676 155.48788086 22.14235352 154.85076172 22.60205078 154.19433594 C27.52820511 147.07978033 31.41340145 139.99160724 34.48046875 131.88671875 C35.375 129.625 35.375 129.625 36.4296875 127.61328125 C37.46758462 125.43026623 37.89631458 123.50320238 38.3125 121.125 C38.99030617 117.37444862 39.88184941 113.75811544 40.91015625 110.08984375 C42.5464168 103.57379732 42.91358324 97.38681999 42.875 90.6875 C42.86927979 89.51598389 42.86355957 88.34446777 42.85766602 87.13745117 C42.2541485 57.25215804 28.76012691 30.7440614 7.67578125 9.96484375 C4.04583363 6.13645923 4.04583363 6.13645923 -0.625 4.625 C-0.625 3.965 -0.625 3.305 -0.625 2.625 C-1.285 2.625 -1.945 2.625 -2.625 2.625 C-2.625 1.965 -2.625 1.305 -2.625 0.625 C-8.86311425 -2.98306184 -15.21203377 -6.18253578 -21.8125 -9.0625 C-22.46476563 -9.34746338 -23.11703125 -9.63242676 -23.7890625 -9.92602539 C-61.78205793 -26.28040459 -108.60011755 -20.74331759 -139.625 7.625 Z " fill="#2F5E9F" transform="translate(193.625,31.375)"/>
<path d="M0 0 C2.72970626 2.1845275 5.34087739 4.44298312 7.921875 6.80078125 C8.70046875 7.49816406 9.4790625 8.19554688 10.28125 8.9140625 C27.37205207 25.03245686 38.15322014 48.83696354 39.16015625 72.25390625 C39.68729477 95.05858349 34.89451021 117.37645932 20.921875 135.80078125 C20.23222656 136.72375 19.54257813 137.64671875 18.83203125 138.59765625 C8.95329418 151.24529792 -1.83487481 159.65773481 -16.078125 166.80078125 C-17.50318359 167.51621094 -17.50318359 167.51621094 -18.95703125 168.24609375 C-22.76530019 170.04043463 -24.75551051 170.80078125 -29.078125 170.80078125 C-29.078125 169.81078125 -29.078125 168.82078125 -29.078125 167.80078125 C-28.15773438 167.47207031 -27.23734375 167.14335937 -26.2890625 166.8046875 C-2.39555739 157.95960282 15.31023202 142.14598237 26.359375 119.05078125 C36.77184755 94.7450096 38.42057264 68.80929265 28.921875 43.80078125 C19.19655969 20.32754343 2.30993816 3.04145235 -20.953125 -7.44921875 C-23.31751604 -8.39291245 -25.69262158 -9.31024394 -28.078125 -10.19921875 C-29.13386719 -10.61429688 -30.18960938 -11.029375 -31.27734375 -11.45703125 C-53.37916613 -18.79863543 -79.35436 -15.4654099 -100.04223633 -5.47241211 C-106.65405019 -2.08813322 -112.38233986 2.01994857 -118.078125 6.80078125 C-119.36783203 7.82945313 -119.36783203 7.82945313 -120.68359375 8.87890625 C-137.65720151 23.08936856 -148.53575054 45.90517334 -150.91259766 67.80688477 C-153.05974288 93.67080071 -146.19401539 119.34586411 -129.2890625 139.36328125 C-126.96286049 141.92785732 -124.53603479 144.36275746 -122.078125 146.80078125 C-121.5625 147.37441406 -121.046875 147.94804687 -120.515625 148.5390625 C-113.32121574 156.41772264 -103.68701482 161.27896937 -94.078125 165.61328125 C-93.47492432 165.89107422 -92.87172363 166.16886719 -92.25024414 166.45507812 C-81.04005502 171.29413574 -69.79470416 172.264275 -57.703125 172.11328125 C-56.38957031 172.11650391 -55.07601562 172.11972656 -53.72265625 172.12304688 C-47.38004461 172.08770304 -42.17574453 171.63350544 -36.078125 169.80078125 C-32.640625 169.67578125 -32.640625 169.67578125 -30.078125 169.80078125 C-30.078125 170.46078125 -30.078125 171.12078125 -30.078125 171.80078125 C-47.79399969 178.94929209 -70.16629992 177.92739125 -88.078125 171.80078125 C-89.03976563 171.51203125 -90.00140625 171.22328125 -90.9921875 170.92578125 C-112.88879535 163.85828823 -130.58109365 147.32351807 -142.078125 127.80078125 C-142.59117187 127.00800781 -143.10421875 126.21523437 -143.6328125 125.3984375 C-154.67998282 107.28222296 -158.56008971 81.00576536 -153.90014648 60.32958984 C-153.06646209 57.11229509 -152.09737027 53.96545428 -151.078125 50.80078125 C-150.71589844 49.61097656 -150.35367188 48.42117187 -149.98046875 47.1953125 C-142.14827857 23.27394521 -125.1562188 3.80202717 -103.078125 -8.19921875 C-98.23028476 -10.62965128 -93.22696438 -12.52384377 -88.078125 -14.19921875 C-87.44100586 -14.40949707 -86.80388672 -14.61977539 -86.14746094 -14.83642578 C-57.2229657 -23.97390389 -24.45636322 -17.47326458 0 0 Z " fill="#3A6DA0" transform="translate(184.078125,44.19921875)"/>
<path d="M0 0 C24.38863346 19.75788027 41.73981887 45.90363298 45.375 77.625 C45.58817135 82.3799515 45.56716498 87.11661945 45.5 91.875 C45.49097656 93.10863281 45.48195312 94.34226562 45.47265625 95.61328125 C45.44936851 98.61740024 45.41666756 101.62108943 45.375 104.625 C45.045 104.625 44.715 104.625 44.375 104.625 C44.045 102.645 43.715 100.665 43.375 98.625 C43.045 98.625 42.715 98.625 42.375 98.625 C42.37089111 98.06852783 42.36678223 97.51205566 42.36254883 96.9387207 C41.95123074 64.75390286 32.41998224 35.854756 9.375 12.625 C6.70124716 10.31077267 4.00474168 8.14965593 1.140625 6.078125 C0.55796875 5.59859375 -0.0246875 5.1190625 -0.625 4.625 C-0.625 3.965 -0.625 3.305 -0.625 2.625 C-1.285 2.625 -1.945 2.625 -2.625 2.625 C-2.625 1.965 -2.625 1.305 -2.625 0.625 C-3.14578125 0.53605469 -3.6665625 0.44710938 -4.203125 0.35546875 C-7.52142983 -0.6453748 -10.37266004 -2.37000252 -13.375 -4.0625 C-38.75704202 -17.89451431 -69.50987591 -22.47804886 -97.625 -14.375 C-113.0099929 -9.74561397 -127.71061616 -2.24196548 -139.625 8.625 C-140.12596191 9.0782666 -140.62692383 9.5315332 -141.14306641 9.99853516 C-157.45024911 24.93495498 -168.10216749 43.20904592 -173.625 64.625 C-173.89046631 65.63739746 -174.15593262 66.64979492 -174.42944336 67.69287109 C-176.60036552 76.72846283 -176.98980131 85.23487016 -176.8125 94.5 C-176.79739548 95.8814955 -176.78371747 97.26300734 -176.77148438 98.64453125 C-176.73658307 101.97178866 -176.68755856 105.29816761 -176.625 108.625 C-176.955 108.625 -177.285 108.625 -177.625 108.625 C-177.955 106.645 -178.285 104.665 -178.625 102.625 C-179.285 103.615 -179.945 104.605 -180.625 105.625 C-181.58449057 72.71816382 -175.93527407 43.01704344 -153.625 17.625 C-152.96242188 16.81933594 -152.29984375 16.01367188 -151.6171875 15.18359375 C-138.63229892 -0.12515865 -120.6870392 -11.31081911 -101.625 -17.375 C-100.47128906 -17.766875 -99.31757812 -18.15875 -98.12890625 -18.5625 C-65.60773975 -28.49076616 -26.78263634 -20.19141561 0 0 Z " fill="#4579A8" transform="translate(193.625,31.375)"/>
<path d="M0 0 C5.38278268 2.47095357 9.06116855 5.96218086 11.73828125 11.31640625 C12.24067173 16.8179938 12.50033856 21.70436194 10.11328125 26.75390625 C2.43387029 35.0395865 2.43387029 35.0395865 -2.58203125 35.5546875 C-8.99335288 35.72434643 -14.11532454 35.41489214 -19.26171875 31.31640625 C-23.40692489 27.11053856 -24.5994303 23.03590589 -24.82421875 17.19140625 C-24.54885683 11.27484604 -23.10497269 7.97107702 -18.73046875 3.88671875 C-12.98237667 -1.10059644 -7.41039642 -2.23975712 0 0 Z " fill="#64B2E9" transform="translate(136.26171875,52.68359375)"/>
<path d="M0 0 C4.78946816 3.6999209 8.26701628 8.33942809 9.0546875 14.3984375 C9.32116704 25.41292528 7.28781108 35.3505403 4.79638672 46.06152344 C2.84427216 54.6658528 1.84004645 62.47095717 2.6484375 71.2734375 C7.47406798 71.66736652 11.26774752 71.86358595 15.4609375 69.2109375 C18.6484375 67.2734375 18.6484375 67.2734375 21.0234375 67.3984375 C22.6484375 68.2734375 22.6484375 68.2734375 23.6484375 70.2734375 C24.13746549 74.51168012 24.02350028 76.66083496 21.7734375 80.3359375 C15.09749692 87.36918194 5.47311118 91.66443687 -4.109375 92.51953125 C-11.13718364 92.68592783 -18.09139038 92.30198904 -24.1640625 88.5234375 C-30.42356716 82.08508985 -31.71045752 76.71893306 -31.63671875 68.04541016 C-31.03300856 60.05968894 -29.07937792 52.26582182 -27.3515625 44.4609375 C-26.77564297 41.83282148 -26.2034658 39.20405847 -25.63964844 36.57331848 C-25.29097929 34.94888847 -24.93529362 33.32594229 -24.57128906 31.70487976 C-23.59300472 27.17554751 -22.9018246 22.93244108 -23.3515625 18.2734375 C-28.03906887 15.14843325 -32.98151953 15.88649171 -38.4140625 16.7734375 C-39.373125 17.0209375 -39.373125 17.0209375 -40.3515625 17.2734375 C-40.95306626 10.17569314 -40.95306626 10.17569314 -38.6015625 6.6484375 C-28.61030938 -1.81677408 -11.99802914 -7.13806797 0 0 Z M-38.3515625 11.2734375 C-38.3515625 11.9334375 -38.3515625 12.5934375 -38.3515625 13.2734375 C-37.45953125 13.26183594 -36.5675 13.25023438 -35.6484375 13.23828125 C-34.47796875 13.22925781 -33.3075 13.22023438 -32.1015625 13.2109375 C-30.94140625 13.19933594 -29.78125 13.18773438 -28.5859375 13.17578125 C-25.94179122 13.25561658 -23.85330159 13.48699972 -21.3515625 14.2734375 C-20.5171976 27.04849118 -22.83620559 38.36730464 -25.76611328 50.75390625 C-29.67779768 66.35325407 -29.67779768 66.35325407 -25.7890625 81.2734375 C-22.84308329 85.06791303 -20.1740949 87.49295951 -15.3515625 88.2734375 C-4.27525213 89.40579826 5.57242476 87.89331359 15.01171875 81.73046875 C15.82189453 81.00923828 15.82189453 81.00923828 16.6484375 80.2734375 C16.6484375 79.6134375 16.6484375 78.9534375 16.6484375 78.2734375 C18.6284375 77.2834375 18.6284375 77.2834375 20.6484375 76.2734375 C20.6484375 74.2934375 20.6484375 72.3134375 20.6484375 70.2734375 C19.6584375 70.675625 19.6584375 70.675625 18.6484375 71.0859375 C17.6584375 71.4778125 16.6684375 71.8696875 15.6484375 72.2734375 C15.02066406 72.53769531 14.39289063 72.80195313 13.74609375 73.07421875 C9.62990867 74.7412342 6.15633953 76.00728202 1.6484375 75.2734375 C-1.7047532 71.67333727 -1.79282456 69.14608505 -1.640625 64.4140625 C-0.86379952 55.97395865 0.87849441 47.63526698 2.73828125 39.375 C6.97421907 22.84613816 6.97421907 22.84613816 2.85546875 6.89453125 C0.0563524 3.13520023 -2.80997295 1.14775421 -7.3515625 0.2734375 C-19.43411615 -0.82171224 -30.20462725 1.79591397 -38.3515625 11.2734375 Z " fill="#35639D" transform="translate(133.3515625,101.7265625)"/>
<path d="M0 0 C0.99 1.485 0.99 1.485 2 3 C-1.78786597 2.4739075 -4.17152224 1.61896089 -7 -1 C-7 -1.66 -7 -2.32 -7 -3 C-7.94875 -3.061875 -8.8975 -3.12375 -9.875 -3.1875 C-13.16631054 -3.64553526 -15.53658251 -4.71233231 -18.4375 -6.3125 C-41.88175547 -18.58437956 -73.30484716 -16.99189846 -97.890625 -9.42578125 C-103.57104969 -7.54062643 -108.8039845 -4.95395527 -114 -2 C-114.68449219 -1.62746094 -115.36898437 -1.25492188 -116.07421875 -0.87109375 C-122.01901465 2.41724238 -127.25867301 6.00614772 -132.07421875 10.80859375 C-132.98880859 11.72060547 -133.90339844 12.63261719 -134.84570312 13.57226562 C-135.31242432 14.04317627 -135.77914551 14.51408691 -136.26000977 14.99926758 C-137.68744444 16.43744402 -139.12528353 17.86459289 -140.56445312 19.29101562 C-141.47517578 20.20431641 -142.38589844 21.11761719 -143.32421875 22.05859375 C-144.15010498 22.88673584 -144.97599121 23.71487793 -145.8269043 24.56811523 C-147.93689464 26.92937956 -149.42708928 29.26389986 -151 32 C-151.78375 32.886875 -152.5675 33.77375 -153.375 34.6875 C-156.7810756 38.63192189 -158.81960372 43.30518929 -161 48 C-162 45 -162 45 -161.1015625 42.7578125 C-159.44698836 39.807593 -157.75358815 36.89270177 -156 34 C-155.08734375 32.48986328 -155.08734375 32.48986328 -154.15625 30.94921875 C-137.98303103 5.97403638 -112.86874776 -10.55434887 -84 -17 C-55.5807743 -21.79214265 -23.7121292 -17.28097977 0 0 Z " fill="#78CCF5" transform="translate(188,31)"/>
<path d="M0 0 C0.66 0 1.32 0 2 0 C2.47308594 1.02738281 2.94617187 2.05476562 3.43359375 3.11328125 C8.80744218 14.48405293 15.04003728 23.08346198 24 32 C24.7734375 32.86044922 24.7734375 32.86044922 25.5625 33.73828125 C32.75690926 41.61694139 42.39111018 46.47818812 52 50.8125 C52.90480103 51.22918945 52.90480103 51.22918945 53.82788086 51.65429688 C65.03806998 56.49335449 76.28342084 57.46349375 88.375 57.3125 C89.68855469 57.31572266 91.00210938 57.31894531 92.35546875 57.32226562 C98.69808039 57.28692179 103.90238047 56.83272419 110 55 C113.4375 54.875 113.4375 54.875 116 55 C116 55.66 116 56.32 116 57 C98.28412531 64.14851084 75.91182508 63.12661 58 57 C56.55753906 56.566875 56.55753906 56.566875 55.0859375 56.125 C31.44942386 48.49592355 13.10834402 30.10188469 1.5625 8.625 C0.14560101 5.33779435 -0.43754515 3.50036119 0 0 Z " fill="#3260A0" transform="translate(38,159)"/>
<path d="M0 0 C0.495 1.98 0.495 1.98 1 4 C1.66 4 2.32 4 3 4 C3.9367262 28.45896188 0.10827257 52.07822622 -15 72 C-15.68964844 72.92296875 -16.37929687 73.8459375 -17.08984375 74.796875 C-26.96858082 87.44451667 -37.75674981 95.85695356 -52 103 C-52.95003906 103.47695312 -53.90007812 103.95390625 -54.87890625 104.4453125 C-58.68717519 106.23965338 -60.67738551 107 -65 107 C-65 106.01 -65 105.02 -65 104 C-64.07960937 103.67128906 -63.15921875 103.34257812 -62.2109375 103.00390625 C-38.31743239 94.15882157 -20.61164298 78.34520112 -9.5625 55.25 C-3.46701541 41.02134721 -0.79125058 27.75713072 -0.375 12.3125 C-0.33632812 11.12205078 -0.29765625 9.93160156 -0.2578125 8.70507812 C-0.16459005 5.80352947 -0.07878652 2.90197034 0 0 Z " fill="#34629D" transform="translate(220,108)"/>
<path d="M0 0 C0.33 0 0.66 0 1 0 C1.63582403 11.98175059 0.49464619 22.62983834 -2.21044922 34.3203125 C-4.02387812 42.38581578 -4.59476057 49.75265339 -4 58 C0.82563048 58.39392902 4.61931002 58.59014845 8.8125 55.9375 C12 54 12 54 14.375 54.125 C16 55 16 55 17 57 C17.48902799 61.23824262 17.37506278 63.38739746 15.125 67.0625 C8.40093864 74.1464407 -1.28195549 78.43643568 -10.93359375 79.24609375 C-15.8578896 79.35726643 -18.48918194 79.25540903 -23 77 C-16.73 76.67 -10.46 76.34 -4 76 C-4 75.01 -4 74.02 -4 73 C-2.98679688 72.60167969 -2.98679688 72.60167969 -1.953125 72.1953125 C-1.06109375 71.84210938 -0.1690625 71.48890625 0.75 71.125 C1.63171875 70.77695313 2.5134375 70.42890625 3.421875 70.0703125 C5.6740248 69.1353291 7.83649459 68.12219206 10 67 C10 66.34 10 65.68 10 65 C10.99 64.34 11.98 63.68 13 63 C13.73343428 59.93443402 13.73343428 59.93443402 14 57 C13.46632812 57.34933594 12.93265625 57.69867188 12.3828125 58.05859375 C6.83553089 61.44646643 1.62447436 63.7492673 -5 63 C-7.625 61.1875 -7.625 61.1875 -9 58 C-11.41937899 43.68296902 -5.01958267 25.96365385 -2 12 C-1.34 12 -0.68 12 0 12 C0 8.04 0 4.08 0 0 Z " fill="#325F99" transform="translate(140,115)"/>
<path d="M0 0 C5.38278268 2.47095357 9.06116855 5.96218086 11.73828125 11.31640625 C12.24067173 16.8179938 12.50033856 21.70436194 10.11328125 26.75390625 C2.43387029 35.0395865 2.43387029 35.0395865 -2.58203125 35.5546875 C-8.99335288 35.72434643 -14.11532454 35.41489214 -19.26171875 31.31640625 C-23.40692489 27.11053856 -24.5994303 23.03590589 -24.82421875 17.19140625 C-24.54885683 11.27484604 -23.10497269 7.97107702 -18.73046875 3.88671875 C-12.98237667 -1.10059644 -7.41039642 -2.23975712 0 0 Z M-19.07421875 8.37890625 C-21.78549736 12.80257134 -21.74124754 17.29023416 -21.26171875 22.31640625 C-19.49942506 26.62423527 -16.43538348 30.17270005 -12.26171875 32.31640625 C-6.97180868 33.42400886 -2.52829557 32.85964872 2.17578125 30.19140625 C5.64598102 27.68164561 7.45384874 25.49081192 8.73828125 21.31640625 C9.41954751 16.52167154 9.24096322 13.28586433 6.98828125 8.94140625 C3.6749412 5.07584286 0.89210809 2.68285089 -4.3125 2.078125 C-10.85647474 1.86338317 -14.62599813 3.31713796 -19.07421875 8.37890625 Z " fill="#3C6C9C" transform="translate(136.26171875,52.68359375)"/>
<path d="M0 0 C0.66 0 1.32 0 2 0 C1.35012646 3.95658302 -0.60751549 6.78240198 -2.75 10.125 C-9.32902933 20.63709693 -13.86311989 30.98554415 -17 43 C-17.2669165 44.01529785 -17.53383301 45.0305957 -17.80883789 46.07666016 C-19.97813002 55.10823382 -20.36471798 63.61422449 -20.1875 72.875 C-20.17239548 74.2564955 -20.15871747 75.63800734 -20.14648438 77.01953125 C-20.11158307 80.34678866 -20.06255856 83.67316761 -20 87 C-20.33 87 -20.66 87 -21 87 C-21.495 84.03 -21.495 84.03 -22 81 C-22.66 81.99 -23.32 82.98 -24 84 C-24.86372389 54.37759269 -21.13121951 22.85406436 0 0 Z " fill="#3A6EA2" transform="translate(37,53)"/>
<path d="M0 0 C0.99 1.485 0.99 1.485 2 3 C-1.78786597 2.4739075 -4.17152224 1.61896089 -7 -1 C-7 -1.66 -7 -2.32 -7 -3 C-7.94875 -3.061875 -8.8975 -3.12375 -9.875 -3.1875 C-13.16631054 -3.64553526 -15.53658251 -4.71233231 -18.4375 -6.3125 C-35.08832381 -15.02836239 -56.32635984 -16.18403124 -74.625 -14 C-80.12359258 -13.35000663 -85.45990411 -12.88117757 -91 -13 C-90.01 -13.33 -89.02 -13.66 -88 -14 C-88 -14.66 -88 -15.32 -88 -16 C-58.26410137 -21.92209472 -25.07052602 -18.27095531 0 0 Z " fill="#82D4F8" transform="translate(188,31)"/>
<path d="M0 0 C0.99 0.99 0.99 0.99 2 2 C0.824375 1.7215625 0.824375 1.7215625 -0.375 1.4375 C-2.97089775 0.74037734 -2.97089775 0.74037734 -5 2 C-7.41625559 1.14436835 -9.75763007 0.22509386 -12.125 -0.75 C-30.86422194 -7.95643121 -49.26260303 -7.35014487 -69 -7 C-69 -7.66 -69 -8.32 -69 -9 C-69.99 -9.33 -70.98 -9.66 -72 -10 C-50.03974446 -16.73416348 -19.77519854 -10.07740887 0 0 Z " fill="#4F89B4" transform="translate(177,21)"/>
<path d="M0 0 C1.7290774 -0.02725341 3.45828176 -0.04650987 5.1875 -0.0625 C6.15042969 -0.07410156 7.11335938 -0.08570313 8.10546875 -0.09765625 C11 0 11 0 13.38916016 0.48632812 C15.85337782 0.9711527 18.16258868 1.19880097 20.66796875 1.31640625 C21.55339355 1.35838135 22.43881836 1.40035645 23.35107422 1.44360352 C24.75510498 1.50245728 24.75510498 1.50245728 26.1875 1.5625 C27.15187988 1.6049585 28.11625977 1.64741699 29.10986328 1.69116211 C38.0760533 2.0572042 47.02821091 2.09968655 56 2 C56 2.66 56 3.32 56 4 C49.20622545 5.75413031 43.00337601 6.31738562 36 6.25 C34.99904297 6.24468262 33.99808594 6.23936523 32.96679688 6.23388672 C21.77087977 6.09277672 10.74937408 5.29684411 0 2 C0 1.34 0 0.68 0 0 Z " fill="#22539D" transform="translate(93,230)"/>
<path d="M0 0 C0 0.66 0 1.32 0 2 C-0.99 2 -1.98 2 -3 2 C-3 2.66 -3 3.32 -3 4 C-9.75 8 -9.75 8 -12 8 C-12.33 8.99 -12.66 9.98 -13 11 C-20.15969044 15.3519687 -29.56794216 19 -38 19 C-38 18.34 -38 17.68 -38 17 C-38.66 17.33 -39.32 17.66 -40 18 C-42.55157655 18.0716735 -45.07472971 18.09308442 -47.625 18.0625 C-48.33140625 18.05798828 -49.0378125 18.05347656 -49.765625 18.04882812 C-51.51045275 18.03703875 -53.255237 18.01910324 -55 18 C-55 17.67 -55 17.34 -55 17 C-53.70707031 16.82984375 -52.41414062 16.6596875 -51.08203125 16.484375 C-34.98636552 14.28210428 -14.28524128 0 0 0 Z " fill="#2A5AA5" transform="translate(187,215)"/>
<path d="M0 0 C-0.33 0.99 -0.66 1.98 -1 3 C-4.51766163 1.63875929 -7.93832829 0.11548263 -11.36352539 -1.46240234 C-27.61934716 -8.83760101 -42.28098264 -10.73212485 -60 -11 C-60 -11.33 -60 -11.66 -60 -12 C-36.77263974 -14.1288579 -20.62742766 -10.44579089 0 0 Z " fill="#4776A2" transform="translate(178,40)"/>
<path d="M0 0 C4.82586251 2.19773625 8.09772073 4.69920506 10.74609375 9.3125 C10.84881749 12.743473 10.41673787 15.95263937 9.74609375 19.3125 C9.41609375 19.3125 9.08609375 19.3125 8.74609375 19.3125 C8.648125 18.72082031 8.55015625 18.12914063 8.44921875 17.51953125 C7.49903147 12.49828296 6.59090604 8.93760873 2.74609375 5.3125 C-1.54457516 2.73809865 -6.38773989 2.62591568 -11.25390625 3.3125 C-16.20108384 5.69447439 -18.37787426 8.17809665 -20.25390625 13.3125 C-20.74707501 15.99108327 -21.01939712 18.5921941 -21.25390625 21.3125 C-21.58390625 21.3125 -21.91390625 21.3125 -22.25390625 21.3125 C-24.26267392 11.18425966 -24.26267392 11.18425966 -21.90234375 6.8046875 C-15.81236898 -0.21821957 -9.18035381 -2.80024657 0 0 Z " fill="#3B72A4" transform="translate(136.25390625,52.6875)"/>
<path d="M0 0 C4.74150096 3.12508018 4.74150096 3.12508018 5.8125 6.75 C5.874375 7.4925 5.93625 8.235 6 9 C4 7.625 4 7.625 2 6 C2 5.34 2 4.68 2 4 C-7.81098859 1.03819212 -15.96435098 1.05978197 -25.4921875 5.02734375 C-27.99069118 5.99638957 -30.36319123 6.55108094 -33 7 C-25.42463916 -2.40389621 -10.82388867 -5.08394771 0 0 Z " fill="#5EA3DF" transform="translate(131,104)"/>
<path d="M0 0 C-1 1 -1 1 -4.5625 1.0625 C-5.696875 1.041875 -6.83125 1.02125 -8 1 C-8 1.66 -8 2.32 -8 3 C-15.82136538 4.05303942 -23.55115091 4.21779439 -31.4375 4.25 C-32.69626953 4.270625 -33.95503906 4.29125 -35.25195312 4.3125 C-42.69499479 4.34356121 -49.03326498 3.69208528 -56 1 C-56 0.67 -56 0.34 -56 0 C-55.03964844 0.0721875 -54.07929687 0.144375 -53.08984375 0.21875 C-29.52940635 2.0535688 -29.52940635 2.0535688 -6.20703125 -0.66015625 C-3.81960105 -1.02777824 -2.27680755 -0.74846777 0 0 Z " fill="#A1BCDF" transform="translate(156,234)"/>
<path d="M0 0 C0.265625 2.27734375 0.265625 2.27734375 0 5 C-6.28757219 11.69097837 -16.07899601 15.40412826 -25.06640625 16.30859375 C-29.95113774 16.4191669 -32.52890842 16.23554579 -37 14 C-30.73 13.67 -24.46 13.34 -18 13 C-18 12.01 -18 11.02 -18 10 C-17.32453125 9.73445312 -16.6490625 9.46890625 -15.953125 9.1953125 C-15.06109375 8.84210938 -14.1690625 8.48890625 -13.25 8.125 C-12.36828125 7.77695313 -11.4865625 7.42890625 -10.578125 7.0703125 C-8.3259752 6.1353291 -6.16350541 5.12219206 -4 4 C-4 3.34 -4 2.68 -4 2 C-1 0 -1 0 0 0 Z " fill="#2F5C9A" transform="translate(154,178)"/>
<path d="M0 0 C14.77265901 -0.8106947 14.77265901 -0.8106947 21 4 C24.39845273 7.25902903 27.76011727 11.07358016 28.15673828 15.91210938 C28.19681121 18.19474443 28.17420649 20.46757586 28.125 22.75 C28.11597656 23.54277344 28.10695312 24.33554688 28.09765625 25.15234375 C28.07417012 27.10169281 28.03830137 29.05088575 28 31 C25.67785355 29.19525488 25.04618872 28.32818302 24.62890625 25.36328125 C24.60699219 24.35652344 24.58507812 23.34976563 24.5625 22.3125 C24.16791989 15.79403657 22.86034489 10.68157333 18 6.125 C16.02496743 5.01404418 14.05363083 3.95836106 12 3 C11.34 2.67 10.68 2.34 10 2 C8.29636178 1.77377919 6.58671299 1.59111527 4.875 1.4375 C3.96492188 1.35371094 3.05484375 1.26992187 2.1171875 1.18359375 C1.41851562 1.12300781 0.71984375 1.06242187 0 1 C0 0.67 0 0.34 0 0 Z " fill="#4C78A8" transform="translate(114,99)"/>
<path d="M0 0 C0.33 0 0.66 0 1 0 C1.07551829 4.01602381 1.12922898 8.03175927 1.16479492 12.04833984 C1.18687167 14.06753112 1.22503657 16.08652642 1.26367188 18.10546875 C1.35441171 30.38559289 -0.82981081 41.48233461 -5 53 C-5.33 53 -5.66 53 -6 53 C-5.45655224 44.67666851 -4.31398925 36.76060506 -2.4609375 28.63671875 C-0.49434886 19.20002848 -0.35746076 9.60440633 0 0 Z " fill="#325E95" transform="translate(237,110)"/>
<path d="M0 0 C12.22040775 2.19629448 22.0218005 10.87686711 31 19 C30.67 19.66 30.34 20.32 30 21 C26.01328937 19.63312778 23.11505367 17.84804907 20 15 C20 14.34 20 13.68 20 13 C19.34 13 18.68 13 18 13 C18 12.34 18 11.68 18 11 C17.4112207 10.87310791 16.82244141 10.74621582 16.21582031 10.61547852 C12.76086634 9.65581137 9.81948556 7.74363022 6.75 5.9375 C6.1003125 5.56044922 5.450625 5.18339844 4.78125 4.79492188 C3.18494909 3.86765885 1.59212471 2.93441544 0 2 C0 1.34 0 0.68 0 0 Z " fill="#477FAB" transform="translate(173,21)"/>
<path d="M0 0 C0.66 0 1.32 0 2 0 C2 0.66 2 1.32 2 2 C2.89138672 2.09667969 2.89138672 2.09667969 3.80078125 2.1953125 C6.90294262 3.33038398 7.58647535 5.03513623 9.1875 7.875 C9.95126953 9.20144531 9.95126953 9.20144531 10.73046875 10.5546875 C12 13 12 13 13 16 C13.66 16 14.32 16 15 16 C16.5625 18.8125 16.5625 18.8125 18 22 C17.67 22.99 17.34 23.98 17 25 C0 7.56712963 0 7.56712963 0 0 Z " fill="#29589B" transform="translate(27,176)"/>
<path d="M0 0 C2.31184814 2.91700839 4.05105361 5.88028132 5.75 9.1875 C10.34962437 17.72803709 16.55199037 24.80723545 23 32 C22.34 32.66 21.68 33.32 21 34 C12.06060066 25.95953467 3.39755538 15.30799955 -1 4 C-0.58203125 1.7890625 -0.58203125 1.7890625 0 0 Z " fill="#4784D2" transform="translate(37,162)"/>
<path d="M0 0 C1.20785156 -0.00515625 2.41570312 -0.0103125 3.66015625 -0.015625 C6.7058189 0.23122251 8.387395 0.64744025 10.9375 2.25 C10.05449219 2.27578125 9.17148438 2.3015625 8.26171875 2.328125 C-2.49396617 2.83644953 -11.80459784 4.17951882 -19.625 12.078125 C-21.0625 13.25 -21.0625 13.25 -24.0625 13.25 C-22.72931038 8.86313582 -21.22451585 7.2851303 -17.25 5.0625 C-16.39792969 4.57394531 -15.54585937 4.08539063 -14.66796875 3.58203125 C-9.52849806 0.95450575 -5.84112501 -0.02498877 0 0 Z " fill="#3D6C9E" transform="translate(117.0625,99.75)"/>
<path d="M0 0 C1.23129639 -0.00966797 2.46259277 -0.01933594 3.73120117 -0.02929688 C10.9956694 0.03754351 17.25344844 0.86017335 24.0625 3.4375 C21.13336309 4.33635532 20.22384054 4.49011105 17.1875 3.5 C6.51199912 0.2460895 -5.7051292 2.87555479 -16.49780273 4.36987305 C-21.70194195 5.08390078 -26.68387987 5.61483739 -31.9375 5.4375 C-31.9375 5.1075 -31.9375 4.7775 -31.9375 4.4375 C-21.31709278 0.99470518 -11.15927171 0.02824596 0 0 Z " fill="#ABC5DD" transform="translate(126.9375,28.5625)"/>
<path d="M0 0 C1.14257263 -0.00287018 1.14257263 -0.00287018 2.30822754 -0.00579834 C3.91528657 -0.00715656 5.52235671 -0.0034855 7.12939453 0.00488281 C9.58521232 0.01558778 12.04029864 0.00497554 14.49609375 -0.0078125 C16.05989744 -0.00649084 17.62370068 -0.00392831 19.1875 0 C19.91988892 -0.00404846 20.65227783 -0.00809692 21.40686035 -0.01226807 C25.1258623 0.02183422 27.93495879 0.20278275 31.09375 2.265625 C17.09913834 4.48495398 2.01688388 5.63134125 -11.90625 2.265625 C-8.13689896 -0.19594212 -4.34359837 -0.02401032 0 0 Z " fill="#3F7BD2" transform="translate(115.90625,218.734375)"/>
<path d="M0 0 C2.15775877 6.47327631 -2.04407156 14.21377633 -4.17114258 20.47583008 C-5.68190078 24.95049821 -6.9660553 29.39424636 -8 34 C-8.33 34 -8.66 34 -9 34 C-10.2870679 21.41533604 -5.65593329 10.97217089 0 0 Z " fill="#33669E" transform="translate(41,75)"/>
<path d="M0 0 C0.70125 0.78375 1.4025 1.5675 2.125 2.375 C7.6290802 7.40046453 13.30558408 7.27157481 20.375 7.125 C21.62216797 7.11146484 21.62216797 7.11146484 22.89453125 7.09765625 C24.92981337 7.0742622 26.96494564 7.03839725 29 7 C29 7.66 29 8.32 29 9 C25.51966874 10.74016563 21.58985267 10.51467271 17.75 10.75 C16.90308594 10.81832031 16.05617188 10.88664063 15.18359375 10.95703125 C10.01462133 11.27054591 6.37919438 11.14279723 2 8 C0.6603755 5.32586406 0.49155227 2.99846884 0 0 Z " fill="#2E62AA" transform="translate(107,182)"/>
<path d="M0 0 C0.33 0 0.66 0 1 0 C1.33 12.21 1.66 24.42 2 37 C1.67 37 1.34 37 1 37 C0.67 35.02 0.34 33.04 0 31 C-0.99 32.485 -0.99 32.485 -2 34 C-2.0583721 29.64589022 -2.09372173 25.29188207 -2.125 20.9375 C-2.14175781 19.70837891 -2.15851562 18.47925781 -2.17578125 17.21289062 C-2.20876483 11.09443607 -2.17209842 5.75520567 0 0 Z " fill="#4A75A8" transform="translate(15,103)"/>
<path d="M0 0 C0 0.66 0 1.32 0 2 C-7.63182543 5.74706893 -15.19996421 5.34246779 -23.5 5.1875 C-24.90883986 5.17242613 -26.31769532 5.1587425 -27.7265625 5.14648438 C-31.15144396 5.11129724 -34.57551763 5.06206079 -38 5 C-38 4.67 -38 4.34 -38 4 C-36.77925781 3.96261719 -35.55851562 3.92523438 -34.30078125 3.88671875 C-25.49273463 3.55577799 -17.28294776 2.99884657 -8.76171875 0.62109375 C-5.76437879 -0.05298978 -3.06232006 -0.10403746 0 0 Z " fill="#2B589A" transform="translate(154,214)"/>
<path d="M0 0 C1.3372432 0.65878893 2.67112568 1.32448889 4 2 C3.11248047 2.14695313 3.11248047 2.14695313 2.20703125 2.296875 C-2.81421704 3.24706228 -6.37489127 4.15518771 -10 8 C-12.27710767 12.0987938 -12.53244296 16.40235575 -13 21 C-13.33 21 -13.66 21 -14 21 C-16.00876767 10.87175966 -16.00876767 10.87175966 -13.6484375 6.4921875 C-9.89937788 2.16880385 -5.98932903 -2.24599838 0 0 Z " fill="#467DAF" transform="translate(128,53)"/>
<path d="M0 0 C9.00080719 5.0999245 17.64685061 13.09415987 23 22 C22.67 22.99 22.34 23.98 22 25 C21.34 24.34 20.68 23.68 20 23 C20 22.01 20 21.02 20 20 C19.41347656 19.7525 18.82695312 19.505 18.22265625 19.25 C15.67313625 17.81617504 14.28882935 16.25307196 12.4375 14 C10.32643684 11.44227537 8.80029749 9.866865 6 8 C6 7.34 6 6.68 6 6 C5.21625 5.731875 4.4325 5.46375 3.625 5.1875 C1 4 1 4 -1 1 C-0.67 0.67 -0.34 0.34 0 0 Z " fill="#6DBEEF" transform="translate(192,35)"/>
<path d="M0 0 C5.12997379 -0.08694871 10.13710446 0.05891181 15.25 0.5 C26.3818758 1.99338143 26.3818758 1.99338143 37 0 C38.67654729 0.27942455 40.34608154 0.60828247 42 1 C38.43055242 3.21741746 35.48108867 3.2577189 31.328125 3.265625 C30.02359375 3.26820313 28.7190625 3.27078125 27.375 3.2734375 C26.35792969 3.26715332 26.35792969 3.26715332 25.3203125 3.26074219 C23.27052705 3.25010651 21.22163208 3.26061419 19.171875 3.2734375 C12.44561619 3.26019683 6.41984541 3.0741039 0 1 C0 0.67 0 0.34 0 0 Z " fill="#BAD5F3" transform="translate(103,214)"/>
<path d="M0 0 C0.66 0.33 1.32 0.66 2 1 C0.44505919 3.08935735 -1.11844574 5.17128131 -2.6875 7.25 C-3.12255859 7.83652344 -3.55761719 8.42304688 -4.00585938 9.02734375 C-6.6911622 12.56796525 -9.37247463 15.35942298 -13 18 C-13.66 17.34 -14.32 16.68 -15 16 C-14.39671875 15.33613281 -13.7934375 14.67226562 -13.171875 13.98828125 C-12.37265625 13.10527344 -11.5734375 12.22226563 -10.75 11.3125 C-9.96109375 10.44238281 -9.1721875 9.57226562 -8.359375 8.67578125 C-6.79765516 6.90462547 -5.28527953 5.08860285 -3.828125 3.23046875 C-2 1 -2 1 0 0 Z " fill="#2C5A9A" transform="translate(205,176)"/>
<path d="M0 0 C1.17369141 -0.00386719 1.17369141 -0.00386719 2.37109375 -0.0078125 C4.5625 0.125 4.5625 0.125 7.5625 1.125 C7.5625 1.785 7.5625 2.445 7.5625 3.125 C6.86125 3.04378906 6.16 2.96257813 5.4375 2.87890625 C-0.49789031 2.45354524 -0.49789031 2.45354524 -5.87890625 4.6484375 C-7.82342285 6.40315782 -9.62783685 8.23369791 -11.4375 10.125 C-12.4275 10.62 -12.4275 10.62 -13.4375 11.125 C-13.28567368 8.46803932 -12.96425976 6.68265476 -11.10546875 4.71484375 C-7.24041065 1.48925998 -4.96721902 -0.01631271 0 0 Z " fill="#6DBDEF" transform="translate(129.4375,54.875)"/>
<path d="M0 0 C1.62760417 0.74869792 3.25520833 1.49739583 4.8828125 2.24609375 C10.10766734 4.10660479 15.39084271 4.13158338 20.875 4.0625 C21.56335938 4.05798828 22.25171875 4.05347656 22.9609375 4.04882812 C24.64066335 4.03716336 26.32034375 4.01923271 28 4 C26.9453125 5.47265625 26.9453125 5.47265625 25 7 C16.98830235 8.06630508 7.71443533 8.09547249 1 3 C0.67 2.01 0.34 1.02 0 0 Z " fill="#AAC2DC" transform="translate(108,189)"/>
<path d="M0 0 C0.6328125 1.7890625 0.6328125 1.7890625 1 4 C-1.26728503 7.60098211 -3.67621781 10.63574504 -6.5 13.8125 C-9.84528597 17.71002365 -11.85128148 22.37339757 -14 27 C-15 24 -15 24 -14.1015625 21.7578125 C-9.84519568 14.1684177 -5.0572406 7.06889852 0 0 Z " fill="#67B2E7" transform="translate(41,52)"/>
<path d="M0 0 C0.66 0 1.32 0 2 0 C2.02578125 0.65226562 2.0515625 1.30453125 2.078125 1.9765625 C2.45516815 7.78645463 3.24550913 11.33532952 7 16 C7.66 16.99 8.32 17.98 9 19 C7.68 19.33 6.36 19.66 5 20 C-0.2922002 13.5737569 -0.61046468 8.13952903 0 0 Z " fill="#4472A0" transform="translate(112,64)"/>
<path d="M0 0 C0.33 0 0.66 0 1 0 C1.33 2.97 1.66 5.94 2 9 C2.33 9 2.66 9 3 9 C3.33 12.96 3.66 16.92 4 21 C5.65 21.33 7.3 21.66 9 22 C9 22.33 9 22.66 9 23 C5.29320509 23.42122669 3.60566051 23.47815304 0.625 21.125 C-2.73567642 14.66216073 -1.03417606 6.98068838 0 0 Z " fill="#3E70B1" transform="translate(132,155)"/>
<path d="M0 0 C0 0.66 0 1.32 0 2 C-0.99 2 -1.98 2 -3 2 C-3 2.66 -3 3.32 -3 4 C-9.75 8 -9.75 8 -12 8 C-12 8.66 -12 9.32 -12 10 C-13.41377782 10.36552803 -14.83120576 10.71695495 -16.25 11.0625 C-17.03890625 11.25972656 -17.8278125 11.45695313 -18.640625 11.66015625 C-21.10394822 12.01497267 -22.65604132 11.76877544 -25 11 C-24.26136719 10.70867187 -23.52273437 10.41734375 -22.76171875 10.1171875 C-16.30427943 7.50795535 -10.21747519 4.61063428 -4.1796875 1.13671875 C-2 0 -2 0 0 0 Z " fill="#275EAF" transform="translate(187,215)"/>
<path d="M0 0 C3.65343121 1.31446202 6.46475787 2.92276226 9.5625 5.25 C15.05368653 9.20067266 20.88809277 12.13307444 27 15 C24 16 24 16 22.20996094 15.36669922 C21.55801758 15.01623535 20.90607422 14.66577148 20.234375 14.3046875 C19.50863281 13.91796875 18.78289062 13.53125 18.03515625 13.1328125 C17.28105469 12.71773437 16.52695313 12.30265625 15.75 11.875 C15.01136719 11.483125 14.27273437 11.09125 13.51171875 10.6875 C8.73730092 8.11083006 4.27000688 5.35500541 0 2 C0 1.34 0 0.68 0 0 Z " fill="#5992DF" transform="translate(64,199)"/>
<path d="M0 0 C13.95518962 -0.86025141 13.95518962 -0.86025141 17.8125 2.1875 C19.9763027 4.96953205 20.80092107 6.51611875 21 10 C19 8.625 19 8.625 17 7 C17 6.34 17 5.68 17 5 C14.36 4.34 11.72 3.68 9 3 C9 2.34 9 1.68 9 1 C6.03 1 3.06 1 0 1 C0 0.67 0 0.34 0 0 Z " fill="#64A9E7" transform="translate(116,103)"/>
<path d="M0 0 C7.26236302 1.30960645 13.3830748 3.75956186 20 7 C15.80703492 8.39765503 13.37171945 7.91190242 9.3125 6.5 C8.50425781 6.2215625 7.69601563 5.943125 6.86328125 5.65625 C5.94095703 5.33140625 5.94095703 5.33140625 5 5 C5 4.01 5 3.02 5 2 C3.35 1.67 1.7 1.34 0 1 C0 0.67 0 0.34 0 0 Z " fill="#5286AD" transform="translate(159,15)"/>
<path d="M0 0 C0.96144119 3.04797313 0.98799321 4.98146499 0.1875 8.0625 C-1.10487575 13.33750307 -2.06042069 18.65239437 -3 24 C-3.66 23.34 -4.32 22.68 -5 22 C-5.66 22.33 -6.32 22.66 -7 23 C-5.23708487 16.45202952 -5.23708487 16.45202952 -3.99609375 14.0859375 C-2.85082591 11.68761191 -2.4016179 9.48810078 -1.9375 6.875 C-1.09722222 2.19444444 -1.09722222 2.19444444 0 0 Z " fill="#396CAD" transform="translate(233,145)"/>
<path d="M0 0 C2.1589109 2.90983643 1.70234554 5.4282966 1.4375 8.9375 C1.1075 8.9375 0.7775 8.9375 0.4375 8.9375 C0.1075 6.9575 -0.2225 4.9775 -0.5625 2.9375 C-5.79721686 2.18137423 -10.33504141 1.7311634 -15.5625 2.9375 C-15.8925 2.2775 -16.2225 1.6175 -16.5625 0.9375 C-11.35689487 -1.74926394 -5.43362398 -2.25296604 0 0 Z " fill="#ADC7E3" transform="translate(109.5625,118.0625)"/>
<path d="M0 0 C0.66 0.33 1.32 0.66 2 1 C-0.55781875 2.48780292 -3.12070266 3.96533338 -5.6875 5.4375 C-6.40873047 5.85837891 -7.12996094 6.27925781 -7.87304688 6.71289062 C-11.55781352 8.81606794 -14.70344855 10.53390468 -19 11 C-15.63240993 7.1056843 -11.97008744 5.26937391 -7.375 3.1875 C-6.694375 2.86330078 -6.01375 2.53910156 -5.3125 2.20507812 C-3.57160144 1.40171881 -1.78773528 0.69290442 0 0 Z " fill="#ACC6DF" transform="translate(93,34)"/>
<path d="M0 0 C0.66 1.32 1.32 2.64 2 4 C-0.64 7.63 -3.28 11.26 -6 15 C-6.66 14.01 -7.32 13.02 -8 12 C-7.50628906 11.30132812 -7.01257813 10.60265625 -6.50390625 9.8828125 C-5.86324219 8.97273437 -5.22257813 8.06265625 -4.5625 7.125 C-3.92441406 6.22007812 -3.28632813 5.31515625 -2.62890625 4.3828125 C-1.00481862 2.12261419 -1.00481862 2.12261419 0 0 Z " fill="#4884D5" transform="translate(209,172)"/>
<path d="M0 0 C4.67105792 1.55701931 8.08705685 4.08447373 12 7 C11.01 7.99 10.02 8.98 9 10 C7.49147143 8.90751403 5.99337169 7.80061501 4.5 6.6875 C3.24703125 5.76517578 3.24703125 5.76517578 1.96875 4.82421875 C1.3190625 4.22222656 0.669375 3.62023438 0 3 C0 2.01 0 1.02 0 0 Z " fill="#386C9D" transform="translate(177,41)"/>
<path d="M0 0 C-1.05776181 3.36696012 -2.14446213 4.08522227 -5.2578125 5.921875 C-6.54096087 6.54360668 -7.83032007 7.15265262 -9.125 7.75 C-10.11306641 8.22373047 -10.11306641 8.22373047 -11.12109375 8.70703125 C-12.74218853 9.48233745 -14.37043584 10.24265686 -16 11 C-16 10.34 -16 9.68 -16 9 C-9.25 5 -9.25 5 -7 5 C-7 4.34 -7 3.68 -7 3 C-6.01 3 -5.02 3 -4 3 C-4 2.34 -4 1.68 -4 1 C-2 0 -2 0 0 0 Z " fill="#315A97" transform="translate(191,214)"/>
<path d="M0 0 C1.32 0 2.64 0 4 0 C4 0.66 4 1.32 4 2 C9.445 3.485 9.445 3.485 15 5 C14.34 5.66 13.68 6.32 13 7 C13.33 7.66 13.66 8.32 14 9 C10.40241608 7.67726488 7.36262865 6.0805802 4.1875 3.9375 C3.39730469 3.41027344 2.60710938 2.88304687 1.79296875 2.33984375 C1.20128906 1.89769531 0.60960937 1.45554688 0 1 C0 0.67 0 0.34 0 0 Z " fill="#3A64A1" transform="translate(59,214)"/>
<path d="M0 0 C-1.24460783 0.67667998 -2.49596896 1.34094719 -3.75 2 C-4.79414063 2.556875 -4.79414063 2.556875 -5.859375 3.125 C-8 4 -8 4 -12 4 C-12 3.01 -12 2.02 -12 1 C-10.75835303 0.43945064 -9.50616116 -0.09777907 -8.25 -0.625 C-7.55390625 -0.92664063 -6.8578125 -1.22828125 -6.140625 -1.5390625 C-3.41644339 -2.12565635 -2.31280265 -1.44810616 0 0 Z " fill="#3A65A4" transform="translate(167,211)"/>
<path d="M0 0 C0.33 0 0.66 0 1 0 C1.32873343 6.02677947 0.8874859 11.56962527 -2 17 C-2.99 17.33 -3.98 17.66 -5 18 C-4.80664062 17.3709375 -4.61328125 16.741875 -4.4140625 16.09375 C-2.7907875 10.75783615 -1.30539435 5.42240732 0 0 Z " fill="#538CD4" transform="translate(220,144)"/>
<path d="M0 0 C2.41760876 0.11426509 4.83347218 0.24099661 7.25 0.375 C7.93191406 0.4059375 8.61382812 0.436875 9.31640625 0.46875 C12.98739038 0.68259374 15.86251616 1.01077055 19 3 C12.20626425 4.69843394 6.61499641 2.92258516 0 1 C0 0.67 0 0.34 0 0 Z " fill="#2E5998" transform="translate(93,231)"/>
<path d="M0 0 C0.33 0.99 0.66 1.98 1 3 C-0.57382947 4.65492374 -2.15942902 6.29866024 -3.75 7.9375 C-4.63171875 8.85402344 -5.5134375 9.77054688 -6.421875 10.71484375 C-8.80176695 12.82429343 -9.9099375 13.66067071 -13 14 C-12.34 13.360625 -11.68 12.72125 -11 12.0625 C-7.14346256 8.2170765 -3.59166578 4.09075581 0 0 Z " fill="#ABC5E5" transform="translate(212,196)"/>
<path d="M0 0 C-0.17625835 2.37948772 -0.69719773 3.70225849 -2.40234375 5.37890625 C-3.90649092 6.62115486 -5.45129851 7.81376056 -7 9 C-7.66 8.34 -8.32 7.68 -9 7 C-7.88121617 5.82737096 -6.75476949 4.66204862 -5.625 3.5 C-4.68527344 2.52546875 -4.68527344 2.52546875 -3.7265625 1.53125 C-2 0 -2 0 0 0 Z " fill="#245497" transform="translate(199,185)"/>
<path d="M0 0 C0.66 0.33 1.32 0.66 2 1 C0.90033225 2.29549899 -0.20491801 3.58626071 -1.3125 4.875 C-1.92738281 5.59429687 -2.54226562 6.31359375 -3.17578125 7.0546875 C-5 9 -5 9 -8 11 C-8 8 -8 8 -6.25 5.95703125 C-5.5075 5.24933594 -4.765 4.54164063 -4 3.8125 C-2.88625 2.73935547 -2.88625 2.73935547 -1.75 1.64453125 C-1.1725 1.10183594 -0.595 0.55914062 0 0 Z " fill="#B2D0EE" transform="translate(196,183)"/>
<path d="M0 0 C3.39417765 3.12621626 5.6062718 5.56541027 7 10 C6.01 10 5.02 10 4 10 C1.09677182 6.35022743 0 4.74147821 0 0 Z " fill="#3B70A0" transform="translate(215,54)"/>
<path d="M0 0 C0.64066406 0.19335938 1.28132813 0.38671875 1.94140625 0.5859375 C6.95110985 2.0940748 11.96539857 3.57717786 17 5 C17 5.33 17 5.66 17 6 C10.80481527 5.58411954 5.73310689 4.39748106 0 2 C0 1.34 0 0.68 0 0 Z " fill="#A1BEE0" transform="translate(83,228)"/>
<path d="M0 0 C2.8203125 0.4609375 2.8203125 0.4609375 6.125 1.375 C7.22070312 1.67148438 8.31640625 1.96796875 9.4453125 2.2734375 C10.28835937 2.51320312 11.13140625 2.75296875 12 3 C12 3.33 12 3.66 12 4 C6.80790596 4.21192221 2.873261 3.5912689 -2 2 C-1.34 1.34 -0.68 0.68 0 0 Z " fill="#4985D8" transform="translate(96,216)"/>
<path d="M0 0 C5.77807024 -0.2358396 10.51324804 0.13216954 16 2 C16 2.33 16 2.66 16 3 C10.21101581 3.20674944 5.57067277 2.59162079 0 1 C0 0.67 0 0.34 0 0 Z " fill="#B3CFEF" transform="translate(103,214)"/>
<path d="M0 0 C0.99 0.33 1.98 0.66 3 1 C1.02 3.31 -0.96 5.62 -3 8 C-3.66 7.01 -4.32 6.02 -5 5 C-3.35 3.35 -1.7 1.7 0 0 Z " fill="#C4D9EC" transform="translate(62,53)"/>
<path d="M0 0 C2.0625 0.4375 2.0625 0.4375 4 1 C1.03 3.475 1.03 3.475 -2 6 C-1.125 1.125 -1.125 1.125 0 0 Z " fill="#75C2EF" transform="translate(44,49)"/>
<path d="M0 0 C-1.44472346 3.80881639 -3.32603071 5.29742886 -7 7 C-7.99 6.67 -8.98 6.34 -10 6 C-8.71283353 4.99421411 -7.42011342 3.99553202 -6.125 3 C-5.40570313 2.443125 -4.68640625 1.88625 -3.9453125 1.3125 C-2 0 -2 0 0 0 Z " fill="#B8CEED" transform="translate(196,213)"/>
<path d="M0 0 C1.53508028 2.43338652 2.03088304 3.67124507 1.7578125 6.578125 C1.44457031 7.90070313 1.44457031 7.90070313 1.125 9.25 C0.92132813 10.14203125 0.71765625 11.0340625 0.5078125 11.953125 C0.34023437 12.62859375 0.17265625 13.3040625 0 14 C-0.66 14 -1.32 14 -2 14 C-1.03644647 4.58997722 -1.03644647 4.58997722 0 0 Z " fill="#BBD2F0" transform="translate(138,143)"/>
<path d="M0 0 C1.32 0.66 2.64 1.32 4 2 C0.7 2.66 -2.6 3.32 -6 4 C-6 3.34 -6 2.68 -6 2 C-6.66 1.67 -7.32 1.34 -8 1 C-4.91013114 -0.87599181 -3.40359125 -1.27634672 0 0 Z " fill="#4A80AF" transform="translate(128,53)"/>
<path d="M0 0 C0.66 0 1.32 0 2 0 C3.15957207 3.47871621 2.77456651 4.34219645 1.5625 7.6875 C1.27503906 8.49574219 0.98757812 9.30398437 0.69140625 10.13671875 C0.34916016 11.05904297 0.34916016 11.05904297 0 12 C-0.33 12 -0.66 12 -1 12 C-0.67 8.04 -0.34 4.08 0 0 Z " fill="#3A6095" transform="translate(232,151)"/>
<path d="M0 0 C1.67588141 2.51382212 2.94030311 4.82947288 4.1875 7.5625 C4.55230469 8.34753906 4.91710937 9.13257813 5.29296875 9.94140625 C5.52628906 10.62074219 5.75960938 11.30007812 6 12 C5.67 12.66 5.34 13.32 5 14 C1.34133706 9.67612562 0 5.65076098 0 0 Z " fill="#2E63A6" transform="translate(18,149)"/>
<path d="M0 0 C-0.33 0.99 -0.66 1.98 -1 3 C-1.66 3 -2.32 3 -3 3 C-3.66 4.32 -4.32 5.64 -5 7 C-5.33 6.34 -5.66 5.68 -6 5 C-6.99 4.67 -7.98 4.34 -9 4 C-2.25 0 -2.25 0 0 0 Z " fill="#4D86D6" transform="translate(179,205)"/>
<path d="M0 0 C-1.45255699 3.82946843 -3.42895561 5.12050295 -7 7 C-6.22006468 2.47637516 -4.81844319 0 0 0 Z " fill="#3971A0" transform="translate(122,55)"/>
<path d="M0 0 C2.71224618 1.61268692 5.37352812 3.24901874 8 5 C8 5.66 8 6.32 8 7 C4.06326356 5.68775452 1.77280706 4.08089673 -1 1 C-0.67 0.67 -0.34 0.34 0 0 Z " fill="#76C9F5" transform="translate(192,35)"/>
<path d="M0 0 C0.33 0 0.66 0 1 0 C2.42857143 8.57142857 2.42857143 8.57142857 0 12 C-0.33 12 -0.66 12 -1 12 C-0.67 8.04 -0.34 4.08 0 0 Z " fill="#4D8BD3" transform="translate(222,132)"/>
<path d="M0 0 C-1.49097658 3.7952131 -3.75700849 5.61042731 -7 8 C-6.44414399 4.1090079 -4.34122117 0 0 0 Z " fill="#4583B2" transform="translate(52,40)"/>
<path d="M0 0 C1.8871875 0.061875 1.8871875 0.061875 3.8125 0.125 C3.8125 0.785 3.8125 1.445 3.8125 2.125 C-0.16946457 3.17904945 -3.16945309 2.96598656 -7.1875 2.125 C-4.09861478 0.06574319 -3.47814073 -0.1140374 0 0 Z " fill="#4880AA" transform="translate(104.1875,11.875)"/>
<path d="M0 0 C0.33 0 0.66 0 1 0 C1.33 3.96 1.66 7.92 2 12 C-1 8 -1 8 -1.07421875 5.859375 C-0.53710938 2.9296875 -0.53710938 2.9296875 0 0 Z " fill="#3A6DA8" transform="translate(31,102)"/>
<path d="M0 0 C2.66666667 2.66666667 5.33333333 5.33333333 8 8 C7.67 8.66 7.34 9.32 7 10 C5.62437146 8.71034824 4.29233607 7.37310707 3 6 C3 5.34 3 4.68 3 4 C2.01 3.67 1.02 3.34 0 3 C0 2.01 0 1.02 0 0 Z " fill="#ABC7E2" transform="translate(193,57)"/>
<path d="M0 0 C1.84765625 0.33984375 1.84765625 0.33984375 4.0625 0.9375 C5.16271484 1.22947266 5.16271484 1.22947266 6.28515625 1.52734375 C7.13400391 1.76130859 7.13400391 1.76130859 8 2 C8 2.66 8 3.32 8 4 C1.25 3.25 1.25 3.25 -1 1 C-0.67 0.67 -0.34 0.34 0 0 Z " fill="#B9D4F0" transform="translate(94,210)"/>
<path d="M0 0 C2.50037734 2.17424117 3.43628586 3.73045798 4 7 C3.34 7 2.68 7 2 7 C2 6.34 2 5.68 2 5 C1.01 5.33 0.02 5.66 -1 6 C-0.67 4.02 -0.34 2.04 0 0 Z " fill="#2E61A9" transform="translate(27,171)"/>
<path d="M0 0 C0.33 0 0.66 0 1 0 C1.36629408 4.27343092 0.40814077 6.48812804 -2 10 C-2.6875 8.375 -2.6875 8.375 -3 6 C-1.5625 2.75 -1.5625 2.75 0 0 Z " fill="#528CD6" transform="translate(213,165)"/>
<path d="M0 0 C0.33 0 0.66 0 1 0 C1.36923077 5.53846154 1.36923077 5.53846154 -0.5 7.875 C-1.2425 8.431875 -1.2425 8.431875 -2 9 C-2.25 3.375 -2.25 3.375 0 0 Z " fill="#325C95" transform="translate(228,165)"/>
<path d="M0 0 C0.33 0.99 0.66 1.98 1 3 C2.98 3 4.96 3 7 3 C3.375 6 3.375 6 0 6 C0 4.02 0 2.04 0 0 Z " fill="#315A88" transform="translate(93,113)"/>
<path d="M0 0 C0.6875 1.6875 0.6875 1.6875 1 4 C-0.3125 6.75 -0.3125 6.75 -2 9 C-2.66 9 -3.32 9 -4 9 C-2.94124926 5.59687262 -1.99097846 2.98646769 0 0 Z " fill="#B7D1EE" transform="translate(46,73)"/>
<path d="M0 0 C2.97 1.65 5.94 3.3 9 5 C8.01 5.33 7.02 5.66 6 6 C2.8125 4.1875 2.8125 4.1875 0 2 C0 1.34 0 0.68 0 0 Z " fill="#AEC7DE" transform="translate(171,40)"/>
<path d="M0 0 C1.9375 0.6875 1.9375 0.6875 4 2 C4.75 4.625 4.75 4.625 5 7 C3.02 5.35 1.04 3.7 -1 2 C-0.67 1.34 -0.34 0.68 0 0 Z " fill="#3875A4" transform="translate(203,41)"/>
<path d="M0 0 C-2.05233685 2.2477975 -3.00667261 3.0022242 -6 4 C-6.66 3.34 -7.32 2.68 -8 2 C-4.77208445 -0.1519437 -3.71599191 -0.20086443 0 0 Z " fill="#2C5A99" transform="translate(173,207)"/>
<path d="M0 0 C0.66 1.32 1.32 2.64 2 4 C0.35 5.32 -1.3 6.64 -3 8 C-2.45276317 4.62537285 -1.9451 2.91765 0 0 Z " fill="#66B3E9" transform="translate(35,60)"/>
</svg>
