<?xml version="1.0" encoding="UTF-8"?>
<svg version="1.1" xmlns="http://www.w3.org/2000/svg" width="253" height="239">
<path d="M0 0 C83.49 0 166.98 0 253 0 C253 78.87 253 157.74 253 239 C169.51 239 86.02 239 0 239 C0 160.13 0 81.26 0 0 Z " fill="#DDE9F5" transform="translate(0,0)"/>
<path d="M0 0 C2.64761301 1.917237 5.27122236 3.85851043 7.87109375 5.83984375 C12.8707853 1.69116353 17.30902429 -2.66977229 21.66015625 -7.5 C23.87109375 -9.16015625 23.87109375 -9.16015625 26.58203125 -8.9765625 C28.87109375 -8.16015625 28.87109375 -8.16015625 29.87109375 -7.16015625 C30.19324454 -5.63287356 30.45995993 -4.09383343 30.703125 -2.55200195 C30.85998779 -1.57040604 31.01685059 -0.58881012 31.1784668 0.42253113 C31.34515869 1.49223648 31.51185059 2.56194183 31.68359375 3.6640625 C31.85737549 4.75821976 32.03115723 5.85237701 32.21020508 6.97969055 C32.76766765 10.49498081 33.31947473 14.01113225 33.87109375 17.52734375 C34.24311104 19.88091924 34.61550211 22.23443568 34.98828125 24.58789062 C35.82172071 29.85117589 36.65069461 35.1151517 37.47854614 40.37931824 C37.79905432 42.38829381 38.13529212 44.39475459 38.47607422 46.40039062 C38.87351955 48.85482434 39.00455846 51.1679522 38.99609375 53.65234375 C38.99867188 54.42191406 39.00125 55.19148438 39.00390625 55.984375 C38.87109375 57.83984375 38.87109375 57.83984375 37.87109375 58.83984375 C30.92502029 59.18924382 24.75871522 58.22424638 17.99609375 56.71484375 C16.97467285 56.49401123 15.95325195 56.27317871 14.90087891 56.0456543 C12.71094584 55.57019307 10.52200259 55.0901538 8.33398438 54.60595703 C4.72862388 53.8083244 1.12040206 53.02463898 -2.48828125 52.2421875 C-4.9103393 51.71307683 -7.3322186 51.18314714 -9.75390625 50.65234375 C-10.89714355 50.40274902 -12.04038086 50.1531543 -13.21826172 49.89599609 C-14.29479004 49.65703613 -15.37131836 49.41807617 -16.48046875 49.171875 C-17.42744629 48.96280518 -18.37442383 48.75373535 -19.35009766 48.53833008 C-22.33648402 47.78766663 -25.22009304 46.84727721 -28.12890625 45.83984375 C-27.61107012 41.84073458 -26.68173554 39.89321565 -23.8203125 37.0703125 C-23.15580078 36.40966797 -22.49128906 35.74902344 -21.80664062 35.06835938 C-21.10861328 34.39482422 -20.41058594 33.72128906 -19.69140625 33.02734375 C-18.65016602 31.98803711 -18.65016602 31.98803711 -17.58789062 30.92773438 C-12.4097714 25.83984375 -12.4097714 25.83984375 -10.12890625 25.83984375 C-20.4259159 14.51903964 -37.36209503 9.34707658 -52.27734375 8.46484375 C-71.34179103 7.80095078 -89.00371077 12.54055198 -103.56640625 25.27734375 C-105.11138526 26.77364182 -106.63342605 28.29407306 -108.12890625 29.83984375 C-108.84691406 30.57203125 -109.56492188 31.30421875 -110.3046875 32.05859375 C-125.43743659 48.24579051 -128.85381128 66.85005266 -128.26513672 88.26171875 C-127.99302775 93.41130777 -126.89497617 98.01684156 -125.12890625 102.83984375 C-124.77699219 103.84015625 -124.42507812 104.84046875 -124.0625 105.87109375 C-121.35146303 112.9573686 -117.82827107 118.90129551 -113.12890625 124.83984375 C-112.48308594 125.67386719 -111.83726563 126.50789062 -111.171875 127.3671875 C-100.52414479 140.18792388 -83.58763899 149.4188899 -67.12890625 151.83984375 C-44.6818827 153.67453295 -24.05240769 147.23189503 -6.7109375 132.83203125 C1.00301234 125.46125519 6.52709789 116.52166478 10.87109375 106.83984375 C11.16886719 106.185 11.46664062 105.53015625 11.7734375 104.85546875 C13.85111542 99.852503 14.58691903 94.83922347 15.24609375 89.4765625 C15.95068727 86.50405859 16.48432625 85.67401479 18.87109375 83.83984375 C21.12353516 83.48339844 21.12353516 83.48339844 23.72265625 83.51171875 C25.12257812 83.51945312 25.12257812 83.51945312 26.55078125 83.52734375 C27.52273437 83.54796875 28.4946875 83.56859375 29.49609375 83.58984375 C30.47578125 83.595 31.45546875 83.60015625 32.46484375 83.60546875 C39.71707589 83.68582589 39.71707589 83.68582589 40.87109375 84.83984375 C41.52258128 91.80162891 40.45182558 98.12137243 38.49609375 104.77734375 C38.23207764 105.67904297 37.96806152 106.58074219 37.69604492 107.50976562 C32.87248315 123.04285569 24.99817746 136.07247684 13.87109375 147.83984375 C12.98357422 148.8453125 12.98357422 148.8453125 12.078125 149.87109375 C-0.47839147 163.51274128 -18.58553296 171.1272482 -36.12890625 175.83984375 C-37.49208984 176.21109375 -37.49208984 176.21109375 -38.8828125 176.58984375 C-62.28005794 181.86246244 -87.90395692 175.80564825 -108.06640625 163.40234375 C-132.26316362 146.98967221 -147.49615353 124.79305856 -153.44140625 96.21484375 C-157.32162209 68.52592487 -150.53541576 42.60473062 -133.81640625 20.15234375 C-117.74357957 0.64823947 -97.70398613 -11.0010537 -73.12890625 -16.16015625 C-72.33331299 -16.33522705 -71.53771973 -16.51029785 -70.71801758 -16.69067383 C-46.54130465 -21.07462658 -19.9390357 -13.76565136 0 0 Z " fill="#4E94D7" transform="translate(180.12890625,42.16015625)"/>
<path d="M0 0 C-0.33 0.99 -0.66 1.98 -1 3 C-3.78125 4.0703125 -3.78125 4.0703125 -7.5 5.125 C-22.92787195 9.91843347 -34.72056078 17.55896423 -46 29 C-46.67289063 29.60328125 -47.34578125 30.2065625 -48.0390625 30.828125 C-61.49561638 42.9943244 -70.79186057 64.18248156 -72 82 C-73.2684358 109.24244045 -68.83133196 130.98254334 -52 153 C-51.52949219 153.63292969 -51.05898438 154.26585937 -50.57421875 154.91796875 C-35.07717725 174.18352159 -10.98141271 184.17398402 13 187 C35.11951381 188.7753189 58.22983662 182.13446858 76 169 C76.66 169 77.32 169 78 169 C78 168.34 78 167.68 78 167 C78.66 167 79.32 167 80 167 C80 166.34 80 165.68 80 165 C81.32 164.67 82.64 164.34 84 164 C84 163.34 84 162.68 84 162 C84.66 162 85.32 162 86 162 C86 161.34 86 160.68 86 160 C87.64488294 158.31183067 89.31563573 156.64877911 91 155 C98.30352651 146.34157899 104.39719791 136.80840626 108 126 C108.66 126 109.32 126 110 126 C110.12117187 125.21496094 110.24234375 124.42992187 110.3671875 123.62109375 C111.90491832 113.98070441 111.90491832 113.98070441 113.0625 110.125 C114.20191692 106.56532914 114.20191692 106.56532914 115 101 C109.06 101 103.12 101 97 101 C96.67 103.31 96.34 105.62 96 108 C94.56404746 115.60048763 92.74755309 122.23845741 89 129 C88.30959426 130.65697379 87.63028587 132.31923769 87 134 C86.34 134 85.68 134 85 134 C84.77054688 134.70640625 84.54109375 135.4128125 84.3046875 136.140625 C79.86652218 145.86738252 68.99819535 154.50110284 60 160 C59.01 160 58.02 160 57 160 C57 160.66 57 161.32 57 162 C48.10516466 166.12069583 39.68712657 169.2094274 30 171 C28.4840625 171.31517578 28.4840625 171.31517578 26.9375 171.63671875 C23.8874757 172.0139159 21.9706252 171.69299875 19 171 C17.04268299 170.79598657 15.0852066 170.59307329 13.1262207 170.40576172 C-9.60768005 168.13871127 -26.17828968 157.59007423 -40.875 140.5625 C-45.17668105 135.07844008 -48.29312339 129.40929143 -51 123 C-51.41378906 122.10925781 -51.82757813 121.21851563 -52.25390625 120.30078125 C-58.61283783 104.06002568 -57.04113025 80.98941754 -50.40625 65.0703125 C-46.09064446 55.4142452 -40.20955675 47.67544087 -33 40 C-32.43925781 39.38769531 -31.87851563 38.77539062 -31.30078125 38.14453125 C-30 37 -30 37 -28 37 C-28 36.34 -28 35.68 -28 35 C-9.60849041 21.56233251 11.65060216 16.43825298 34.19921875 19.27685547 C47.39420982 21.56135171 61.70933312 28.22035066 71 38 C69.64937713 41.02496581 68.14970763 43.0805694 65.77734375 45.3828125 C65.15666016 45.99253906 64.53597656 46.60226563 63.89648438 47.23046875 C63.25001953 47.85566406 62.60355469 48.48085937 61.9375 49.125 C60.6527607 50.37536074 59.37010319 51.62786516 58.08984375 52.8828125 C57.52128662 53.43340332 56.95272949 53.98399414 56.36694336 54.55126953 C54.89270095 55.97414012 54.89270095 55.97414012 54 58 C54.73299316 58.12528076 55.46598633 58.25056152 56.22119141 58.37963867 C69.85786015 60.7247373 83.43773032 63.14231146 96.89306641 66.38745117 C97.71726074 66.58443604 98.54145508 66.7814209 99.390625 66.984375 C100.4429834 67.24299316 100.4429834 67.24299316 101.51660156 67.50683594 C104.99276766 68.19714812 108.48026985 68.58607751 112 69 C111.1824558 63.5413735 110.36456965 58.08279838 109.54638672 52.62426758 C109.26895235 50.77304418 108.99160629 48.92180754 108.71435547 47.07055664 C108.44501729 45.2722138 108.17555831 43.47388905 107.90597534 41.67558289 C107.64132627 39.91017054 107.37694072 38.14471867 107.11282349 36.37922668 C106.54139958 32.56751147 105.96562137 28.75683827 105.36279297 24.94995117 C105.18119629 23.80115479 104.99959961 22.6523584 104.8125 21.46875 C104.65652344 20.50001953 104.50054687 19.53128906 104.33984375 18.53320312 C103.90697937 15.30662209 103.84892493 12.2481139 104 9 C103.27296875 9.63615234 103.27296875 9.63615234 102.53125 10.28515625 C101.12047325 11.5195859 99.70473721 12.74836156 98.28515625 13.97265625 C96.79675599 15.29313443 95.34320258 16.65431426 93.93359375 18.05859375 C88.93921351 22.91614165 88.93921351 22.91614165 84.5 23.3125 C80.82845681 21.9356713 78.62053391 20.29604349 75.59765625 17.87890625 C63.2044815 8.91482045 48.94619554 3.78068754 34 1 C34 0.67 34 0.34 34 0 C53.41687403 -1.79539589 70.065617 8.61867137 85 20 C89.99969155 15.85131978 94.43793054 11.49038396 98.7890625 6.66015625 C101 5 101 5 103.7109375 5.18359375 C106 6 106 6 107 7 C107.32215079 8.52728269 107.58886618 10.06632282 107.83203125 11.6081543 C107.98889404 12.58975021 108.14575684 13.57134613 108.30737305 14.58268738 C108.47406494 15.65239273 108.64075684 16.72209808 108.8125 17.82421875 C108.98628174 18.91837601 109.16006348 20.01253326 109.33911133 21.1398468 C109.8965739 24.65513706 110.44838098 28.1712885 111 31.6875 C111.37201729 34.04107549 111.74440836 36.39459193 112.1171875 38.74804688 C112.95062696 44.01133214 113.77960086 49.27530795 114.60745239 54.53947449 C114.92796057 56.54845006 115.26419837 58.55491084 115.60498047 60.56054688 C116.0024258 63.01498059 116.13346471 65.32810845 116.125 67.8125 C116.12757813 68.58207031 116.13015625 69.35164063 116.1328125 70.14453125 C116 72 116 72 115 73 C108.05392654 73.34940007 101.88762147 72.38440263 95.125 70.875 C94.1035791 70.65416748 93.0821582 70.43333496 92.02978516 70.20581055 C89.83985209 69.73034932 87.65090884 69.25031005 85.46289062 68.76611328 C81.85753013 67.96848065 78.24930831 67.18479523 74.640625 66.40234375 C72.21856695 65.87323308 69.79668765 65.34330339 67.375 64.8125 C66.2317627 64.56290527 65.08852539 64.31331055 63.91064453 64.05615234 C62.83411621 63.81719238 61.75758789 63.57823242 60.6484375 63.33203125 C59.70145996 63.12296143 58.75448242 62.9138916 57.77880859 62.69848633 C54.79242223 61.94782288 51.90881321 61.00743346 49 60 C49.51783613 56.00089083 50.44717071 54.0533719 53.30859375 51.23046875 C53.97310547 50.56982422 54.63761719 49.90917969 55.32226562 49.22851562 C56.02029297 48.55498047 56.71832031 47.88144531 57.4375 47.1875 C58.47874023 46.14819336 58.47874023 46.14819336 59.54101562 45.08789062 C64.71913485 40 64.71913485 40 67 40 C56.70299035 28.67919589 39.76681122 23.50723283 24.8515625 22.625 C5.78711522 21.96110703 -11.87480452 26.70070823 -26.4375 39.4375 C-27.98247901 40.93379807 -29.5045198 42.45422931 -31 44 C-31.71800781 44.7321875 -32.43601563 45.464375 -33.17578125 46.21875 C-48.30853034 62.40594676 -51.72490503 81.01020891 -51.13623047 102.421875 C-50.8641215 107.57146402 -49.76606992 112.17699781 -48 117 C-47.64808594 118.0003125 -47.29617187 119.000625 -46.93359375 120.03125 C-44.22255678 127.11752485 -40.69936482 133.06145176 -36 139 C-35.35417969 139.83402344 -34.70835938 140.66804687 -34.04296875 141.52734375 C-23.39523854 154.34808013 -6.45873274 163.57904615 10 166 C32.44702355 167.8346892 53.07649856 161.39205128 70.41796875 146.9921875 C78.13191859 139.62141144 83.65600414 130.68182103 88 121 C88.29777344 120.34515625 88.59554687 119.6903125 88.90234375 119.015625 C90.98002167 114.01265925 91.71582528 108.99937972 92.375 103.63671875 C93.07959352 100.66421484 93.6132325 99.83417104 96 98 C98.25244141 97.64355469 98.25244141 97.64355469 100.8515625 97.671875 C102.25148437 97.67960937 102.25148437 97.67960937 103.6796875 97.6875 C104.65164062 97.708125 105.62359375 97.72875 106.625 97.75 C107.6046875 97.75515625 108.584375 97.7603125 109.59375 97.765625 C116.84598214 97.84598214 116.84598214 97.84598214 118 99 C118.65148753 105.96178516 117.58073183 112.28152868 115.625 118.9375 C115.36098389 119.83919922 115.09696777 120.74089844 114.82495117 121.66992188 C110.0013894 137.20301194 102.12708371 150.23263309 91 162 C90.11248047 163.00546875 90.11248047 163.00546875 89.20703125 164.03125 C76.65051478 177.67289753 58.54337329 185.28740445 41 190 C39.63681641 190.37125 39.63681641 190.37125 38.24609375 190.75 C14.84884831 196.02261869 -10.77505067 189.9658045 -30.9375 177.5625 C-55.13425737 161.14982846 -70.36724728 138.95321481 -76.3125 110.375 C-80.19271584 82.68608112 -73.40650951 56.76488687 -56.6875 34.3125 C-44.12439752 19.06738688 -21.23330464 -1.01110974 0 0 Z " fill="#35549C" transform="translate(103,28)"/>
<path d="M0 0 C19.41687403 -1.79539589 36.065617 8.61867137 51 20 C55.99969155 15.85131978 60.43793054 11.49038396 64.7890625 6.66015625 C67 5 67 5 69.7109375 5.18359375 C72 6 72 6 73 7 C73.32215079 8.52728269 73.58886618 10.06632282 73.83203125 11.6081543 C73.98889404 12.58975021 74.14575684 13.57134613 74.30737305 14.58268738 C74.47406494 15.65239273 74.64075684 16.72209808 74.8125 17.82421875 C74.98628174 18.91837601 75.16006348 20.01253326 75.33911133 21.1398468 C75.8965739 24.65513706 76.44838098 28.1712885 77 31.6875 C77.37201729 34.04107549 77.74440836 36.39459193 78.1171875 38.74804688 C78.95062696 44.01133214 79.77960086 49.27530795 80.60745239 54.53947449 C80.92796057 56.54845006 81.26419837 58.55491084 81.60498047 60.56054688 C82.0024258 63.01498059 82.13346471 65.32810845 82.125 67.8125 C82.12757813 68.58207031 82.13015625 69.35164063 82.1328125 70.14453125 C82 72 82 72 81 73 C74.05392654 73.34940007 67.88762147 72.38440263 61.125 70.875 C60.1035791 70.65416748 59.0821582 70.43333496 58.02978516 70.20581055 C55.83985209 69.73034932 53.65090884 69.25031005 51.46289062 68.76611328 C47.85753013 67.96848065 44.24930831 67.18479523 40.640625 66.40234375 C38.21856695 65.87323308 35.79668765 65.34330339 33.375 64.8125 C32.2317627 64.56290527 31.08852539 64.31331055 29.91064453 64.05615234 C28.83411621 63.81719238 27.75758789 63.57823242 26.6484375 63.33203125 C25.22797119 63.01842651 25.22797119 63.01842651 23.77880859 62.69848633 C20.79242223 61.94782288 17.90881321 61.00743346 15 60 C15.51783613 56.00089083 16.44717071 54.0533719 19.30859375 51.23046875 C19.97310547 50.56982422 20.63761719 49.90917969 21.32226562 49.22851562 C22.02029297 48.55498047 22.71832031 47.88144531 23.4375 47.1875 C24.13166016 46.49462891 24.82582031 45.80175781 25.54101562 45.08789062 C30.71913485 40 30.71913485 40 33 40 C22.70299035 28.67919589 5.76681122 23.50723283 -9.1484375 22.625 C-28.37973165 21.95529682 -46.17662239 26.74845476 -60.6875 39.8125 C-61.43386719 40.54082031 -62.18023437 41.26914063 -62.94921875 42.01953125 C-64.86761917 43.87215794 -66.83382825 45.4499403 -69 47 C-69 46.34 -69 45.68 -69 45 C-69.66 44.67 -70.32 44.34 -71 44 C-69.88121617 42.82737096 -68.75476949 41.66204862 -67.625 40.5 C-66.99851562 39.8503125 -66.37203125 39.200625 -65.7265625 38.53125 C-64 37 -64 37 -62 37 C-62 36.34 -62 35.68 -62 35 C-43.60849041 21.56233251 -22.34939784 16.43825298 0.19921875 19.27685547 C13.39420982 21.56135171 27.70933312 28.22035066 37 38 C35.64937713 41.02496581 34.14970763 43.0805694 31.77734375 45.3828125 C30.84631836 46.29740234 30.84631836 46.29740234 29.89648438 47.23046875 C29.25001953 47.85566406 28.60355469 48.48085937 27.9375 49.125 C26.6527607 50.37536074 25.37010319 51.62786516 24.08984375 52.8828125 C23.52128662 53.43340332 22.95272949 53.98399414 22.36694336 54.55126953 C20.89270095 55.97414012 20.89270095 55.97414012 20 58 C20.73299316 58.12528076 21.46598633 58.25056152 22.22119141 58.37963867 C35.85786015 60.7247373 49.43773032 63.14231146 62.89306641 66.38745117 C63.71726074 66.58443604 64.54145508 66.7814209 65.390625 66.984375 C66.4429834 67.24299316 66.4429834 67.24299316 67.51660156 67.50683594 C70.99276766 68.19714812 74.48026985 68.58607751 78 69 C77.1824558 63.5413735 76.36456965 58.08279838 75.54638672 52.62426758 C75.26895235 50.77304418 74.99160629 48.92180754 74.71435547 47.07055664 C74.44501729 45.2722138 74.17555831 43.47388905 73.90597534 41.67558289 C73.64132627 39.91017054 73.37694072 38.14471867 73.11282349 36.37922668 C72.54139958 32.56751147 71.96562137 28.75683827 71.36279297 24.94995117 C71.18119629 23.80115479 70.99959961 22.6523584 70.8125 21.46875 C70.65652344 20.50001953 70.50054687 19.53128906 70.33984375 18.53320312 C69.90697937 15.30662209 69.84892493 12.2481139 70 9 C69.27296875 9.63615234 69.27296875 9.63615234 68.53125 10.28515625 C67.12047325 11.5195859 65.70473721 12.74836156 64.28515625 13.97265625 C62.79675599 15.29313443 61.34320258 16.65431426 59.93359375 18.05859375 C54.93921351 22.91614165 54.93921351 22.91614165 50.5 23.3125 C46.82845681 21.9356713 44.62053391 20.29604349 41.59765625 17.87890625 C29.2044815 8.91482045 14.94619554 3.78068754 0 1 C0 0.67 0 0.34 0 0 Z " fill="#3A6EA4" transform="translate(137,28)"/>
<path d="M0 0 C-0.33 0.99 -0.66 1.98 -1 3 C-3.78125 4.0703125 -3.78125 4.0703125 -7.5 5.125 C-22.92787195 9.91843347 -34.72056078 17.55896423 -46 29 C-46.67289063 29.60328125 -47.34578125 30.2065625 -48.0390625 30.828125 C-63.46514158 44.77499102 -71.24761874 67.32795167 -72.31640625 87.47265625 C-72.40139199 89.33580508 -72.48339918 91.19909205 -72.5625 93.0625 C-72.60568359 94.02349609 -72.64886719 94.98449219 -72.69335938 95.97460938 C-72.79821132 98.31630277 -72.90037788 100.65807929 -73 103 C-73.33 103 -73.66 103 -74 103 C-74.495 100.03 -74.495 100.03 -75 97 C-75.33 99.31 -75.66 101.62 -76 104 C-76.33 104 -76.66 104 -77 104 C-78.06556293 74.62734799 -70.49641764 49.61455776 -50.64453125 27.359375 C-38.78600501 14.81771357 -18.02744843 -0.85844993 0 0 Z " fill="#3580B6" transform="translate(103,28)"/>
<path d="M0 0 C-1.5234375 1.171875 -1.5234375 1.171875 -4 2 C-6.68177085 1.20671679 -9.07207212 0.34617242 -11.625 -0.75 C-28.67536433 -7.92910077 -48.65290782 -8.75984383 -66 -2 C-74.74452716 1.7603016 -82.09896414 6.3349132 -88.94921875 13.01953125 C-90.86761917 14.87215794 -92.83382825 16.4499403 -95 18 C-95 17.34 -95 16.68 -95 16 C-95.66 15.67 -96.32 15.34 -97 15 C-95.88121617 13.82737096 -94.75476949 12.66204862 -93.625 11.5 C-92.99851562 10.8503125 -92.37203125 10.200625 -91.7265625 9.53125 C-90 8 -90 8 -88 8 C-88 7.34 -88 6.68 -88 6 C-60.98413242 -13.73901292 -29.34503282 -14.84571643 0 0 Z " fill="#337BAF" transform="translate(163,57)"/>
<path d="M0 0 C19.41687403 -1.79539589 36.065617 8.61867137 51 20 C56.29012124 15.59156563 61.18808428 10.92440206 66 6 C66.495 6.99 66.495 6.99 67 8 C67.99 8.33 68.98 8.66 70 9 C68.09951182 10.66292716 66.19752352 12.32336596 64.28515625 13.97265625 C62.79675599 15.29313443 61.34320258 16.65431426 59.93359375 18.05859375 C54.93921351 22.91614165 54.93921351 22.91614165 50.5 23.3125 C46.82845681 21.9356713 44.62053391 20.29604349 41.59765625 17.87890625 C29.2044815 8.91482045 14.94619554 3.78068754 0 1 C0 0.67 0 0.34 0 0 Z " fill="#3A7EAD" transform="translate(137,28)"/>
<path d="M0 0 C2.03947548 3.05921321 2.42122232 4.55002675 2.97265625 8.09375 C5.98652745 25.9321529 11.30344341 40.84235049 21.58984375 55.7734375 C23.06710072 58.1059485 24.05345879 60.41187283 25 63 C20.23233488 62.27448574 18.6748205 59.63124759 15.9296875 55.90234375 C6.39777091 41.56587812 -0.25199742 25.57753242 -0.0625 8.1875 C-0.05573242 7.00510742 -0.05573242 7.00510742 -0.04882812 5.79882812 C-0.03711312 3.86585239 -0.01917998 1.93291607 0 0 Z " fill="#2E5497" transform="translate(27,122)"/>
<path d="M0 0 C0.33 0 0.66 0 1 0 C0.46819305 5.59490054 -1.05574601 9.93574102 -3.4375 15 C-8.84213055 26.63388514 -10.02393167 37.37524271 -10.5625 50.0625 C-10.60568359 51.02349609 -10.64886719 51.98449219 -10.69335938 52.97460938 C-10.79821132 55.31630277 -10.90037788 57.65807929 -11 60 C-11.33 60 -11.66 60 -12 60 C-12.33 58.02 -12.66 56.04 -13 54 C-13.33 56.31 -13.66 58.62 -14 61 C-14.33 61 -14.66 61 -15 61 C-15.80062502 38.93046327 -12.8208516 20.14068663 -1 1 C-0.67 0.67 -0.34 0.34 0 0 Z " fill="#346CA5" transform="translate(41,71)"/>
<path d="M0 0 C-0.60178477 4.11219592 -2.94567377 7.04447062 -5.25 10.375 C-12.68058003 21.49728091 -15.82992008 33.09248541 -16.5625 46.375 C-16.60568359 47.11105469 -16.64886719 47.84710938 -16.69335938 48.60546875 C-16.79843799 50.40348068 -16.89962093 52.20171958 -17 54 C-17.33 54 -17.66 54 -18 54 C-18 58.95 -18 63.9 -18 69 C-19.98302103 65.03395795 -20.26471212 63.46765049 -20.30078125 59.1953125 C-20.31044922 58.06134033 -20.32011719 56.92736816 -20.33007812 55.7590332 C-20.23124213 35.32606352 -17.92182016 16.80866175 -3.4453125 1.1875 C-2 0 -2 0 0 0 Z " fill="#376AA4" transform="translate(68,73)"/>
<path d="M0 0 C1.40475586 -0.00193359 1.40475586 -0.00193359 2.83789062 -0.00390625 C4.30838867 0.00189453 4.30838867 0.00189453 5.80859375 0.0078125 C6.79279297 0.00394531 7.77699219 0.00007813 8.79101562 -0.00390625 C9.72623047 -0.00261719 10.66144531 -0.00132813 11.625 0 C12.48681885 0.00112793 13.3486377 0.00225586 14.23657227 0.00341797 C16.24609375 0.1328125 16.24609375 0.1328125 17.24609375 1.1328125 C17.56327661 6.17042266 17.55286412 11.23242363 16.24609375 16.1328125 C15.25609375 15.8028125 14.26609375 15.4728125 13.24609375 15.1328125 C13.57609375 11.1728125 13.90609375 7.2128125 14.24609375 3.1328125 C8.30609375 3.1328125 2.36609375 3.1328125 -3.75390625 3.1328125 C-4.08390625 5.4428125 -4.41390625 7.7528125 -4.75390625 10.1328125 C-5.24935238 12.45088427 -5.76951005 14.76383723 -6.31640625 17.0703125 C-6.58582031 18.21371094 -6.85523438 19.35710937 -7.1328125 20.53515625 C-7.44025391 21.82099609 -7.44025391 21.82099609 -7.75390625 23.1328125 C-9.07390625 22.8028125 -10.39390625 22.4728125 -11.75390625 22.1328125 C-11.0235749 18.93883005 -10.28895162 15.74596537 -9.546875 12.5546875 C-9.08150296 10.54648106 -8.62272348 8.53668944 -8.1796875 6.5234375 C-7.76633918 4.71131847 -7.2690548 2.91866081 -6.75390625 1.1328125 C-4.3167441 -0.08576857 -2.72116568 0.00355675 0 0 Z " fill="#3E66A3" transform="translate(203.75390625,125.8671875)"/>
<path d="M0 0 C-3.63484642 4.08487502 -7.11916925 6.27015184 -12.1875 8.125 C-12.85096436 8.37652832 -13.51442871 8.62805664 -14.19799805 8.88720703 C-16.12616121 9.6088943 -18.06114996 10.30762781 -20 11 C-20.94101563 11.34546875 -21.88203125 11.6909375 -22.8515625 12.046875 C-28.64649831 13.99691689 -33.91013572 14.34984327 -40 14 C-37.74120753 11.74120753 -36.17954588 11.18513924 -33.1875 10.125 C-31.71023437 9.60099609 -31.71023437 9.60099609 -30.203125 9.06640625 C-26.96672169 7.98892076 -23.71104899 7.0205173 -20.4375 6.0625 C-15.28567996 4.52922023 -10.77608509 2.53228502 -6.12109375 -0.14453125 C-3.61743549 -1.15429397 -2.49093381 -0.92068529 0 0 Z " fill="#314D97" transform="translate(174,204)"/>
<path d="M0 0 C-3.2197679 1.7681699 -6.40087717 2.72137683 -9.9375 3.6875 C-20.83631185 7.01090451 -29.67825729 12.07413688 -37.87890625 19.984375 C-39.82745652 21.83603603 -41.8175489 23.43615749 -44 25 C-44 24.34 -44 23.68 -44 23 C-44.66 22.67 -45.32 22.34 -46 22 C-44.88121617 20.82737096 -43.75476949 19.66204862 -42.625 18.5 C-41.99851562 17.8503125 -41.37203125 17.200625 -40.7265625 16.53125 C-39 15 -39 15 -37 15 C-37 14.34 -37 13.68 -37 13 C-35.0051234 11.56008907 -33.03713554 10.26944011 -30.9375 9 C-30.09541992 8.46632813 -30.09541992 8.46632813 -29.23632812 7.921875 C-25.26826005 5.49114987 -21.49035207 4.14357097 -17 3 C-15.5174854 2.46756477 -14.03777356 1.92718179 -12.5625 1.375 C-8.20503474 -0.11492369 -4.58128487 -0.24988827 0 0 Z " fill="#3F78AA" transform="translate(112,50)"/>
<path d="M0 0 C0.66 0 1.32 0 2 0 C2.02689216 1.47906892 2.04634621 2.95827483 2.0625 4.4375 C2.07410156 5.26121094 2.08570313 6.08492188 2.09765625 6.93359375 C2 9 2 9 1 10 C-5.61932118 10.3020722 -11.54776966 9.54428936 -18 8.125 C-18.85722656 7.95097656 -19.71445313 7.77695313 -20.59765625 7.59765625 C-25.28104142 6.59566418 -25.28104142 6.59566418 -27 6 C-27.33 5.34 -27.66 4.68 -28 4 C-25.5830979 2.46332768 -24.3263238 1.97049794 -21.43457031 2.23193359 C-20.49194336 2.45187988 -19.54931641 2.67182617 -18.578125 2.8984375 C-17.04091797 3.24648437 -17.04091797 3.24648437 -15.47265625 3.6015625 C-14.40917969 3.85679688 -13.34570312 4.11203125 -12.25 4.375 C-11.17105469 4.6225 -10.09210938 4.87 -8.98046875 5.125 C-6.3172182 5.73778331 -3.6575841 6.36316833 -1 7 C-1.020625 6.030625 -1.04125 5.06125 -1.0625 4.0625 C-1 1 -1 1 0 0 Z " fill="#376299" transform="translate(217,91)"/>
<path d="M0 0 C1.47243164 -0.01160156 1.47243164 -0.01160156 2.97460938 -0.0234375 C9.43478259 -0.00633578 15.40864527 0.73486067 21.6875 2.25 C21.6875 2.58 21.6875 2.91 21.6875 3.25 C14.0979721 4.0689086 6.62740173 4.2987119 -0.99365234 4.23046875 C-7.14003172 4.19710229 -13.20001908 4.59046449 -19.3125 5.25 C-18.9825 4.26 -18.6525 3.27 -18.3125 2.25 C-12.33490961 -0.20318347 -6.38482699 -0.04971961 0 0 Z " fill="#4693BF" transform="translate(123.3125,24.75)"/>
<path d="M0 0 C-0.33 0.99 -0.66 1.98 -1 3 C-3.36672973 3.95206404 -5.62462324 4.72422332 -8.0625 5.4375 C-12.36534352 6.77302241 -16.50497063 8.0673656 -20.5 10.1875 C-23.98013768 11.98971416 -27.22320305 13.00235552 -31 14 C-32.67632417 14.64199649 -34.34750513 15.29894157 -36 16 C-32.79026554 12.39608762 -29.17184751 10.20077101 -24.9375 8 C-24.27500244 7.65259766 -23.61250488 7.30519531 -22.92993164 6.94726562 C-7.78808174 -0.84195478 -7.78808174 -0.84195478 0 0 Z " fill="#3E85B3" transform="translate(103,28)"/>
<path d="M0 0 C13.76334612 -1.27263817 25.06345382 3.53437082 37 10 C35.484375 11.1953125 35.484375 11.1953125 33 12 C30.27362961 11.08120117 27.84003094 10.08862953 25.25 8.875 C17.00440106 5.22177279 8.7958118 2.90595653 0 1 C0 0.67 0 0.34 0 0 Z " fill="#3889B8" transform="translate(137,28)"/>
<path d="M0 0 C0.33 0.99 0.66 1.98 1 3 C1.66 3 2.32 3 3 3 C3.33 2.34 3.66 1.68 4 1 C3.67 9.25 3.34 17.5 3 26 C2.67 26 2.34 26 2 26 C1.67 24.02 1.34 22.04 1 20 C0.67 22.31 0.34 24.62 0 27 C-0.33 27 -0.66 27 -1 27 C-1.02913821 23.4375173 -1.04684529 19.87506546 -1.0625 16.3125 C-1.07087891 15.30509766 -1.07925781 14.29769531 -1.08789062 13.25976562 C-1.09111328 12.28330078 -1.09433594 11.30683594 -1.09765625 10.30078125 C-1.10289307 9.40528564 -1.10812988 8.50979004 -1.11352539 7.5871582 C-0.99840198 4.96358241 -0.58234285 2.55706947 0 0 Z " fill="#486DA2" transform="translate(27,105)"/>
<path d="M0 0 C4.19943358 0.47720836 8.01000042 1.29773891 12.0625 2.5 C21.46200142 4.96721868 31.33694227 4.76654919 41 5 C41 5.66 41 6.32 41 7 C15.5598492 7.31668238 15.5598492 7.31668238 6 4 C4.865625 3.62875 3.73125 3.2575 2.5625 2.875 C1.2940625 2.441875 1.2940625 2.441875 0 2 C0 1.34 0 0.68 0 0 Z " fill="#2B468B" transform="translate(94,190)"/>
<path d="M0 0 C-0.46109625 7.03171776 -1.72752806 13.68074384 -5 20 C-5.99 20.33 -6.98 20.66 -8 21 C-8.33 21.99 -8.66 22.98 -9 24 C-9.66 24 -10.32 24 -11 24 C-10.01 20.7 -9.02 17.4 -8 14 C-7.34 14 -6.68 14 -6 14 C-5.89042969 13.15695313 -5.78085938 12.31390625 -5.66796875 11.4453125 C-5.50941406 10.34960938 -5.35085937 9.25390625 -5.1875 8.125 C-5.03667969 7.03445312 -4.88585937 5.94390625 -4.73046875 4.8203125 C-4.03611147 2.13942503 -3.3654208 0 0 0 Z " fill="#365B98" transform="translate(219,140)"/>
<path d="M0 0 C-2.61941217 1.74627478 -4.03824877 2.38722388 -7 3 C-6.67 3.66 -6.34 4.32 -6 5 C-8.99706695 5.86963087 -11.64956526 6.11763099 -14.765625 6.09765625 C-15.65507813 6.09443359 -16.54453125 6.09121094 -17.4609375 6.08789062 C-18.38132812 6.07951172 -19.30171875 6.07113281 -20.25 6.0625 C-21.18585938 6.05798828 -22.12171875 6.05347656 -23.0859375 6.04882812 C-25.39069041 6.03706918 -27.69531227 6.02063426 -30 6 C-30 5.67 -30 5.34 -30 5 C-22.08 4.505 -22.08 4.505 -14 4 C-18.29 3.67 -22.58 3.34 -27 3 C-27 2.34 -27 1.68 -27 1 C-25.60587891 1.01740234 -25.60587891 1.01740234 -24.18359375 1.03515625 C-16.06073219 1.09444721 -8.0567966 -0.19650723 0 0 Z " fill="#4A67AF" transform="translate(143,214)"/>
<path d="M0 0 C0 3.54540188 -0.59385272 4.06007364 -2.875 6.625 C-3.40867187 7.23601563 -3.94234375 7.84703125 -4.4921875 8.4765625 C-6 10 -6 10 -8 11 C-8.70395814 12.64256899 -9.40305787 14.28749429 -10.0703125 15.9453125 C-11.6836338 19.51088814 -13.85473245 22.73546242 -16 26 C-17.08203125 24.1953125 -17.08203125 24.1953125 -18 22 C-14.35039643 13.31046768 -6.6860188 6.47034077 0 0 Z " fill="#3B76A8" transform="translate(59,49)"/>
<path d="M0 0 C0.33 0.66 0.66 1.32 1 2 C1.99 2.33 2.98 2.66 4 3 C-0.61534219 7.06478107 -5.25585812 11.08608295 -10 15 C-10.99 14.34 -11.98 13.68 -13 13 C-8.71 8.71 -4.42 4.42 0 0 Z " fill="#4882AF" transform="translate(203,34)"/>
<path d="M0 0 C3.47914941 -0.02887814 6.95826831 -0.04675687 10.4375 -0.0625 C11.92733398 -0.07506836 11.92733398 -0.07506836 13.44726562 -0.08789062 C14.39150391 -0.09111328 15.33574219 -0.09433594 16.30859375 -0.09765625 C17.62041626 -0.10551147 17.62041626 -0.10551147 18.95874023 -0.11352539 C21 0 21 0 22 1 C22.1245486 2.64230364 22.17568524 4.29052276 22.1875 5.9375 C22.20167969 6.83339844 22.21585938 7.72929687 22.23046875 8.65234375 C22 11 22 11 20 13 C20 9.37 20 5.74 20 2 C13.07 2 6.14 2 -1 2 C-0.67 1.34 -0.34 0.68 0 0 Z " fill="#436496" transform="translate(199,126)"/>
<path d="M0 0 C-1 2 -1 2 -3.58984375 3.0703125 C-10.58461741 5.27403349 -16.66222167 6.59629801 -24 6 C-18.06729589 0.06729589 -7.94632687 -0.25633312 0 0 Z " fill="#2A458A" transform="translate(158,212)"/>
<path d="M0 0 C-3.25278792 1.7792358 -6.50305643 2.79613397 -10.0625 3.8125 C-16.32382749 5.68948166 -22.13436267 8.13183265 -28 11 C-28 9.68 -28 8.36 -28 7 C-24.48082406 5.02926148 -20.87449828 4.07977821 -17 3 C-15.52031358 2.45975478 -14.04116748 1.91802789 -12.5625 1.375 C-8.20503474 -0.11492369 -4.58128487 -0.24988827 0 0 Z " fill="#477FAC" transform="translate(112,50)"/>
<path d="M0 0 C0.33 0 0.66 0 1 0 C1.18175781 1.24394531 1.36351562 2.48789063 1.55078125 3.76953125 C2.88425306 12.67275852 4.27291233 21.39323396 7 30 C4 28 4 28 3.3125 24.875 C3.209375 23.92625 3.10625 22.9775 3 22 C2.34 22 1.68 22 1 22 C-0.17402193 14.66236293 -0.09377123 7.41834582 0 0 Z " fill="#365B93" transform="translate(49,120)"/>
<path d="M0 0 C6.92988052 0.14437251 10.19760593 3.22255343 15 8 C14.34 9.32 13.68 10.64 13 12 C12.938125 11.38125 12.87625 10.7625 12.8125 10.125 C12.4103125 9.073125 12.4103125 9.073125 12 8 C10.35767228 7.27544365 8.68375165 6.62225605 7 6 C4.57150419 4.46144986 2.21622412 2.83301534 0 1 C0 0.67 0 0.34 0 0 Z " fill="#2B68A0" transform="translate(159,58)"/>
<path d="M0 0 C-0.33 0.99 -0.66 1.98 -1 3 C-3.58203125 4.01953125 -3.58203125 4.01953125 -6.8125 4.8125 C-8.39998047 5.22435547 -8.39998047 5.22435547 -10.01953125 5.64453125 C-13.19651509 6.02343758 -14.38308171 5.74250007 -17 4 C-5.47835991 -0.59225513 -5.47835991 -0.59225513 0 0 Z " fill="#458FBB" transform="translate(103,28)"/>
<path d="M0 0 C9.15564771 -0.34915606 17.95960217 0.72958023 27 2 C27 2.33 27 2.66 27 3 C7.99544419 3.3690205 7.99544419 3.3690205 0 1 C0 0.67 0 0.34 0 0 Z " fill="#B1C6EA" transform="translate(104,192)"/>
<path d="M0 0 C-0.33 0.99 -0.66 1.98 -1 3 C-9.58 2.34 -18.16 1.68 -27 1 C-27 0.67 -27 0.34 -27 0 C-24.0003508 -0.19654959 -21.00064899 -0.38246106 -18 -0.5625 C-17.16082031 -0.61857422 -16.32164063 -0.67464844 -15.45703125 -0.73242188 C-10.14062774 -1.0415151 -5.26352696 -0.82242609 0 0 Z " fill="#4D8AB4" transform="translate(144,49)"/>
<path d="M0 0 C0.33 0 0.66 0 1 0 C1.2358396 5.77807024 0.86783046 10.51324804 -1 16 C-1.66 16 -2.32 16 -3 16 C-3.37851209 10.06997733 -2.10575375 5.52760359 0 0 Z " fill="#38669D" transform="translate(31,92)"/>
<path d="M0 0 C3.37769872 5.06654808 3.69427685 11.0103912 3 17 C2.34 17.66 1.68 18.32 1 19 C-0.25433458 15.23699626 -0.10695422 11.72789091 -0.0625 7.8125 C-0.05798828 7.06291016 -0.05347656 6.31332031 -0.04882812 5.54101562 C-0.03706354 3.69397617 -0.01912865 1.84697787 0 0 Z " fill="#37669B" transform="translate(213,65)"/>
<path d="M0 0 C5.56890517 0.47986031 10.67067568 1.29915181 16 3 C16 3.66 16 4.32 16 5 C10.147205 4.48517081 4.6702363 3.54642808 -1 2 C-0.67 1.34 -0.34 0.68 0 0 Z " fill="#466FA1" transform="translate(159,88)"/>
<path d="M0 0 C-0.33 0.99 -0.66 1.98 -1 3 C-7.7831364 4.42002108 -14.06697907 5.22731216 -21 5 C-17.46132568 2.96016267 -13.91801709 2.20375119 -9.9375 1.375 C-8.09478516 0.98441406 -8.09478516 0.98441406 -6.21484375 0.5859375 C-3 0 -3 0 0 0 Z " fill="#B8CCEF" transform="translate(154,215)"/>
<path d="M0 0 C0.33 0.99 0.66 1.98 1 3 C1.66 3 2.32 3 3 3 C3.33 2.34 3.66 1.68 4 1 C3.67 9.25 3.34 17.5 3 26 C2.67 26 2.34 26 2 26 C1.93941406 24.87722656 1.87882812 23.75445312 1.81640625 22.59765625 C1.39705018 15.03659035 0.95660166 7.5161559 0 0 Z " fill="#3E71AD" transform="translate(27,105)"/>
<path d="M0 0 C6.58583281 2.27598634 12.83603112 4.74356361 19 8 C17.171875 9.0546875 17.171875 9.0546875 15 10 C12.25 9.125 12.25 9.125 10 8 C10 7.34 10 6.68 10 6 C5.05 4.02 5.05 4.02 0 2 C0 1.34 0 0.68 0 0 Z " fill="#4889B2" transform="translate(155,30)"/>
<path d="M0 0 C0.66 0 1.32 0 2 0 C0.53967505 5.31027254 -1.98320986 9.46330032 -5 14 C-6.39195915 9.82412255 -4.82323219 7.86525224 -3 4 C-2.34 4 -1.68 4 -1 4 C-0.67 2.68 -0.34 1.36 0 0 Z " fill="#2A4C8C" transform="translate(211,160)"/>
<path d="M0 0 C3.53790403 3.69172595 3.59115883 7.09390595 4 12 C3.01 11.67 2.02 11.34 1 11 C-0.8380113 6.95637513 -1.25455926 4.26550147 0 0 Z " fill="#2A4E8E" transform="translate(31,146)"/>
<path d="M0 0 C1.258125 0.12375 2.51625 0.2475 3.8125 0.375 C4.87404297 0.47941406 4.87404297 0.47941406 5.95703125 0.5859375 C8 1 8 1 11 3 C9.375 4.125 9.375 4.125 7 5 C3.8125 4.3125 3.8125 4.3125 1 3 C0.67 2.01 0.34 1.02 0 0 Z " fill="#3E7FB1" transform="translate(142,50)"/>
<path d="M0 0 C-1.375 2 -1.375 2 -4 4 C-7.3580469 4.35791096 -10.63536357 4.23115823 -14 4 C-11.97803833 1.97803833 -10.74135514 1.32448642 -8.125 0.3125 C-7.44695312 0.04050781 -6.76890625 -0.23148438 -6.0703125 -0.51171875 C-3.68892218 -1.07336741 -2.29569809 -0.76694846 0 0 Z " fill="#2F4C96" transform="translate(148,214)"/>
<path d="M0 0 C-0.66 1.32 -1.32 2.64 -2 4 C-6.29 4 -10.58 4 -15 4 C-15 3.67 -15 3.34 -15 3 C-12.87790224 2.30359327 -10.75221473 1.61811643 -8.625 0.9375 C-6.84996094 0.36322266 -6.84996094 0.36322266 -5.0390625 -0.22265625 C-2 -1 -2 -1 0 0 Z " fill="#3252A4" transform="translate(162,209)"/>
<path d="M0 0 C1.06751688 3.30421892 0.98942604 4.03172187 -0.1875 7.5625 C-1.89083122 10.79295577 -2.91363322 12.19075051 -6 14 C-4.50829734 9.0276578 -2.39542583 4.58154261 0 0 Z " fill="#B7CEEE" transform="translate(214,158)"/>
<path d="M0 0 C1.95582488 2.93373731 3.56224304 5.78216298 5 9 C4.67 9.66 4.34 10.32 4 11 C3.67 9.68 3.34 8.36 3 7 C1.68 7.33 0.36 7.66 -1 8 C-1.33 6.68 -1.66 5.36 -2 4 C-1.34 4 -0.68 4 0 4 C0 2.68 0 1.36 0 0 Z " fill="#345DA5" transform="translate(35,154)"/>
<path d="M0 0 C0.66 0 1.32 0 2 0 C2.33 1.98 2.66 3.96 3 6 C2.01 6.33 1.02 6.66 0 7 C-0.33 7.99 -0.66 8.98 -1 10 C-1.66 10 -2.32 10 -3 10 C-2.01 6.7 -1.02 3.4 0 0 Z " fill="#355FA8" transform="translate(211,154)"/>
<path d="M0 0 C0.33 0 0.66 0 1 0 C1 1.65 1 3.3 1 5 C-0.96466413 6.06775224 -2.96855359 7.06553465 -5 8 C-5.66 7.67 -6.32 7.34 -7 7 C-5.37660195 5.29115995 -3.70680947 3.62553283 -2 2 C-1.34 2 -0.68 2 0 2 C0 1.34 0 0.68 0 0 Z " fill="#3E6FA2" transform="translate(170,66)"/>
<path d="M0 0 C0.66 0 1.32 0 2 0 C1.01 3.96 0.02 7.92 -1 12 C-1.33 12 -1.66 12 -2 12 C-2.17835515 7.45194365 -1.99785435 4.1205746 0 0 Z " fill="#325E96" transform="translate(53,96)"/>
<path d="M0 0 C0.99 0.33 1.98 0.66 3 1 C0.69 3.31 -1.62 5.62 -4 8 C-4.33 7.01 -4.66 6.02 -5 5 C-3.35 3.35 -1.7 1.7 0 0 Z " fill="#2E65A3" transform="translate(166,72)"/>
<path d="M0 0 C1.60517097 0.08733576 3.20921662 0.19552224 4.8125 0.3125 C6.15248047 0.39951172 6.15248047 0.39951172 7.51953125 0.48828125 C10.30604 1.06313581 11.24135754 1.8206856 13 4 C8.28596212 3.52060632 4.33420699 3.03165952 0 1 C0 0.67 0 0.34 0 0 Z " fill="#3455A9" transform="translate(96,193)"/>
<path d="M0 0 C1.98 0.99 1.98 0.99 4 2 C4 2.99 4 3.98 4 5 C4.99 5.33 5.98 5.66 7 6 C6.67 7.32 6.34 8.64 6 10 C4.99723227 8.52270825 3.99785546 7.04311423 3 5.5625 C2.443125 4.73878906 1.88625 3.91507813 1.3125 3.06640625 C0 1 0 1 0 0 Z " fill="#395792" transform="translate(40,172)"/>
<path d="M0 0 C-1.49097658 3.7952131 -3.75700849 5.61042731 -7 8 C-6.44414399 4.1090079 -4.34122117 0 0 0 Z " fill="#3A82B6" transform="translate(202,39)"/>
<path d="M0 0 C1.48199902 0.44909061 2.96055236 0.90956564 4.4375 1.375 C5.26121094 1.63023437 6.08492188 1.88546875 6.93359375 2.1484375 C9 3 9 3 10 5 C8.51793505 4.745504 7.03931385 4.47088238 5.5625 4.1875 C4.73878906 4.03667969 3.91507812 3.88585937 3.06640625 3.73046875 C2.38449219 3.48941406 1.70257813 3.24835938 1 3 C0.67 2.01 0.34 1.02 0 0 Z " fill="#3151A4" transform="translate(73,202)"/>
<path d="M0 0 C0.66 0.33 1.32 0.66 2 1 C1.1875 3.4375 1.1875 3.4375 0 6 C-0.99 6.33 -1.98 6.66 -3 7 C-3.33 5.68 -3.66 4.36 -4 3 C-2.68 2.01 -1.36 1.02 0 0 Z " fill="#3856A2" transform="translate(176,199)"/>
<path d="M0 0 C0.66 0 1.32 0 2 0 C0.8141763 3.37503669 -0.27573689 5.64722731 -3 8 C-3 4.40142046 -2.04169485 2.90548882 0 0 Z " fill="#C0D6F5" transform="translate(187,154)"/>
<path d="M0 0 C0 1.32 0 2.64 0 4 C-2.31 4.33 -4.62 4.66 -7 5 C-2.25 0 -2.25 0 0 0 Z " fill="#4581AE" transform="translate(67,44)"/>
</svg>
